<svg width="24" height="24" viewBox="0 0 24 24" fill="none" xmlns="http://www.w3.org/2000/svg">
<path fill-rule="evenodd" clip-rule="evenodd" d="M18.9772 6.20074C18.982 6.37584 18.9584 6.52186 18.8902 6.67555C18.8503 6.76532 18.7952 6.85771 18.7216 6.96005C18.8493 6.96945 18.9562 6.98608 19.0489 7.01134C19.2265 7.05975 19.3515 7.13986 19.4689 7.26154C19.5342 7.32924 19.5971 7.40982 19.6654 7.50496C19.5571 7.55098 19.4614 7.58704 19.3734 7.61405C19.1999 7.66731 19.0566 7.68542 18.9067 7.6755C18.8051 7.66878 18.7006 7.64916 18.5816 7.61887C18.6183 7.73737 18.6366 7.84135 18.6376 7.93976C18.6393 8.10014 18.595 8.24574 18.5093 8.41534C18.4676 8.49799 18.4159 8.58634 18.355 8.68487C18.2712 8.60336 18.2012 8.52901 18.1434 8.45564C18.0353 8.31847 17.97 8.18468 17.9374 8.01368C17.9325 7.98793 17.9283 7.96134 17.9249 7.93376C17.7974 8.14896 17.6866 8.34657 17.5904 8.53347C17.4683 8.77072 17.3699 8.99013 17.2912 9.20546C17.2228 9.39255 17.1688 9.57776 17.1269 9.77022C17.2625 9.81795 17.3906 9.86469 17.5107 9.9101C17.889 10.0531 18.1914 10.1844 18.3949 10.2933C18.4952 10.3469 18.5794 10.3992 18.6369 10.4489C18.6648 10.4729 18.6963 10.5046 18.7173 10.5439C18.7398 10.5857 18.7597 10.6575 18.7179 10.7298L18.7146 10.7355L18.7145 10.7354C17.072 13.3148 15.8423 14.9173 14.0588 16.613L16.6556 20.0163L16.4724 20.243C16.243 20.135 16.1092 20.0856 16.0242 20.0692C15.9839 20.0614 15.9614 20.0626 15.9489 20.0648C15.938 20.0667 15.9285 20.0705 15.9151 20.0797C15.9039 20.0874 15.8882 20.1026 15.867 20.1232C15.7857 20.2022 15.6235 20.3599 15.3245 20.4711L15.2607 20.4948L15.2008 20.4624C14.803 20.247 14.5023 20.1399 14.2052 20.108C13.9073 20.0759 13.5999 20.1178 13.1849 20.2221L13.127 20.2367L13.075 20.2075C12.7179 20.0075 12.4399 19.8985 12.1456 19.8626C11.8503 19.8266 11.5253 19.8626 11.0721 19.9751L11.0069 19.9912L10.9514 19.9534C10.6099 19.7203 10.339 19.6018 10.046 19.5672C9.74958 19.5322 9.41466 19.5811 8.9408 19.7134L8.8712 19.7328L8.81263 19.6905C8.44752 19.4268 7.97835 19.1189 7.4946 18.9177C7.00695 18.7148 6.5318 18.6317 6.13888 18.7778L5.99341 18.5197L9.21224 15.9667C8.5787 15.0484 8.00554 13.9214 7.73709 12.6766C7.01479 11.8158 6.53202 10.6931 6.28061 9.81502C6.15357 9.37134 6.08298 8.98111 6.07286 8.71168C6.06801 8.5826 6.07573 8.4582 6.11402 8.36927C6.13371 8.32353 6.17206 8.26294 6.2451 8.23498C6.2961 8.21546 6.34481 8.21896 6.38603 8.23173C6.41476 8.22753 6.443 8.22389 6.47077 8.22091C7.10195 8.13874 7.77234 8.10879 8.46124 8.11978C8.46065 8.05826 8.45903 7.9961 8.45631 7.9328C8.36755 7.94228 8.28539 7.94202 8.20492 7.92799C8.07348 7.90508 7.96099 7.84803 7.84009 7.76522L7.70907 7.67548L7.80614 7.54979C7.90816 7.41768 8.00275 7.32415 8.11325 7.24851C8.1924 7.19433 8.27653 7.15159 8.37052 7.11047C8.35353 7.00023 8.33392 6.88404 8.3115 6.76061L8.06315 6.1018L7.87467 5.78189C7.86809 5.81639 7.86059 5.84904 7.85213 5.88009C7.80372 6.05771 7.7236 6.18273 7.60193 6.30009C7.53422 6.36539 7.45365 6.42832 7.35851 6.49662C7.31249 6.38831 7.27643 6.29255 7.24941 6.20455C7.19616 6.03107 7.17804 5.88775 7.18797 5.73791C7.19469 5.63634 7.2143 5.53176 7.24459 5.41277C7.12609 5.44944 7.02212 5.46777 6.9237 5.46881C6.76332 5.47049 6.61772 5.42623 6.44813 5.34052C6.36548 5.29875 6.27713 5.24713 6.1786 5.18619C6.26011 5.1024 6.33445 5.03237 6.40783 4.97456C6.54499 4.86649 6.67879 4.80115 6.84979 4.76858C6.94428 4.75058 7.05013 4.74258 7.17419 4.74292C7.11507 4.63496 7.0713 4.5385 7.04133 4.44578C6.99037 4.28815 6.97926 4.14132 7.0003 3.96714C7.01153 3.87418 7.03191 3.77342 7.06027 3.65908C7.1649 3.71336 7.25397 3.76471 7.33101 3.81807C7.47212 3.91579 7.57289 4.02023 7.65502 4.1617C7.70515 4.24804 7.74833 4.34816 7.7895 4.46896C7.85832 4.37481 7.93077 4.30181 8.02571 4.24259C8.13314 4.17557 8.26937 4.1262 8.46172 4.0838C8.55521 4.0632 8.66196 4.04424 8.7851 4.0257C8.75716 4.14662 8.72888 4.25057 8.69524 4.34401C8.64224 4.49122 8.57593 4.61235 8.47669 4.73264C8.4131 4.80972 8.33599 4.88646 8.24019 4.96951C8.36204 5.00493 8.46084 5.04649 8.54353 5.0992C8.68455 5.18911 8.77873 5.31146 8.86056 5.49122C8.89835 5.57422 8.9335 5.66946 8.96942 5.7794C8.8555 5.79539 8.75507 5.80585 8.66273 5.8084C8.48762 5.81323 8.34161 5.78962 8.18792 5.72136L8.18694 5.72092L8.30081 5.91418C8.67538 6.05219 8.86889 6.17364 9.14838 6.41481L9.27868 6.52725L9.14949 6.64097C9.05036 6.72822 8.95403 6.7861 8.83811 6.82128C8.77407 6.84071 8.7066 6.85238 8.63363 6.85972C8.65293 6.9726 8.66986 7.07988 8.68452 7.18258C8.71364 7.38641 8.73387 7.57225 8.74626 7.74812C8.75551 7.8793 8.76035 8.00453 8.76131 8.12709C9.21431 8.14185 9.67393 8.17337 10.1344 8.2185C10.1508 7.95551 10.1639 7.66925 10.1749 7.34143C9.84072 7.10336 9.57389 6.89402 9.41761 6.66101C9.33147 6.5326 9.27703 6.39494 9.2618 6.24038C9.2467 6.0872 9.27097 5.92626 9.32912 5.75168L9.33808 5.72481L9.35621 5.70305C9.67582 5.31957 10.0109 5.09896 10.3559 5.15238C10.6964 5.2051 10.9627 5.5133 11.1784 5.96082C11.3608 6.33922 11.3853 6.61586 11.2356 6.83187C11.14 6.96972 10.987 7.05765 10.8491 7.13165C10.8242 7.14502 10.7993 7.15814 10.7745 7.17122L10.7745 7.17122L10.7745 7.17123L10.7745 7.17124C10.6727 7.22498 10.5722 7.278 10.475 7.34445C10.4636 7.68311 10.4501 7.97835 10.4331 8.24964C10.867 8.29757 11.3006 8.35698 11.7291 8.42525C11.786 7.98245 11.8469 7.51111 11.9334 6.98502C11.899 7.01071 11.8612 7.03244 11.819 7.05163C11.738 7.0885 11.6409 7.11598 11.5202 7.14416C11.5166 7.02068 11.5202 6.92037 11.5379 6.83078C11.5489 6.77518 11.5654 6.72372 11.589 6.67341C11.628 6.59022 11.6865 6.51021 11.772 6.41994C11.6555 6.38198 11.566 6.34037 11.4897 6.28525C11.447 6.25441 11.4084 6.21934 11.3715 6.17832C11.3106 6.11059 11.2544 6.02661 11.1919 5.91863C11.3124 5.88003 11.4107 5.85735 11.5032 5.85375C11.5418 5.85226 11.5793 5.85407 11.6171 5.85944C11.7129 5.87304 11.8099 5.90943 11.9276 5.97234C11.9092 5.85934 11.9132 5.76327 11.9529 5.65056C11.9651 5.61606 11.9806 5.58 11.9998 5.54142C12.0411 5.45849 12.0997 5.36391 12.1794 5.24812C12.2497 5.36536 12.3 5.4623 12.3333 5.56019C12.3466 5.59927 12.3572 5.63851 12.3652 5.67925C12.3839 5.77416 12.3889 5.87722 12.3824 6.00554C12.4946 5.94148 12.589 5.91075 12.6851 5.91033C12.735 5.91011 12.7853 5.91806 12.8389 5.93376C12.855 5.93847 12.8714 5.94388 12.8881 5.94998C12.8489 5.85709 12.8129 5.76269 12.78 5.6685C12.6139 5.19355 12.5178 4.70052 12.4876 4.37619L12.4391 3.85534L12.7562 4.27133L13.1474 4.7844L13.7241 4.43434L13.8778 4.34103L13.942 4.50897L14.0404 4.76623L14.6921 4.3566L15.0262 4.14654L14.9159 4.52552C14.8903 4.61347 14.8638 4.71919 14.8345 4.83584L14.8345 4.83586C14.763 5.12067 14.6751 5.4706 14.5447 5.78587C14.3978 6.14102 14.1832 6.49103 13.8435 6.69153L14.0094 6.78733L14.3053 6.95812L14.4408 6.72338L14.5537 6.52784L14.6902 6.7077L14.9126 7.00077L15.1013 6.82616L15.2609 6.96316C15.3193 6.85776 15.3766 6.76369 15.4332 6.68096C15.6305 6.39238 15.8501 6.19582 16.1078 6.2115C16.236 6.21929 16.3496 6.27948 16.449 6.36676C16.5476 6.45343 16.6395 6.57307 16.7277 6.71634C16.8123 6.85393 16.8966 7.01852 16.9819 7.20677L16.9992 7.24479L16.9943 7.28624C16.9792 7.41491 16.9566 7.53389 16.9178 7.64038C16.9407 7.60192 16.9636 7.56605 16.9869 7.53246C17.0846 7.39135 17.189 7.29058 17.3305 7.20844C17.4168 7.15832 17.517 7.11514 17.6378 7.07397C17.5436 7.00515 17.4706 6.9327 17.4114 6.83776C17.3444 6.73033 17.295 6.59409 17.2526 6.40174C17.232 6.30826 17.213 6.20151 17.1945 6.07837C17.3154 6.10631 17.4194 6.13459 17.5128 6.16823C17.66 6.22123 17.7812 6.28753 17.9014 6.38678C17.9785 6.45037 18.0553 6.52748 18.1383 6.62328C18.1737 6.50142 18.2153 6.40263 18.268 6.31994C18.3579 6.17891 18.4803 6.08473 18.66 6.0029C18.743 5.96512 18.8383 5.92997 18.9482 5.89405C18.9642 6.00797 18.9747 6.1084 18.9772 6.20074ZM13.0068 6.2057C12.9787 6.23883 12.9508 6.26827 12.922 6.29445C12.8871 6.32623 12.8509 6.3532 12.8115 6.37615C12.7299 6.42363 12.6344 6.45384 12.5078 6.47365C12.5906 6.57487 12.6457 6.66152 12.6802 6.74542C12.7021 6.79875 12.7158 6.85098 12.723 6.90514C12.726 6.92773 12.7279 6.95066 12.7288 6.97415L12.8922 7.13896L12.0967 7.92772C12.0715 8.11487 12.0482 8.29625 12.0253 8.47398C12.3876 8.53542 12.7453 8.60284 13.0956 8.6746L13.3508 6.72248C13.2196 6.57666 13.1053 6.39853 13.0068 6.2057ZM12.4879 7.11743C12.4662 7.10418 12.4457 7.09078 12.4264 7.07708C12.3894 7.05089 12.3563 7.02363 12.3259 6.99433C12.2989 6.96828 12.2739 6.94062 12.25 6.91064C12.2192 7.09219 12.1916 7.26695 12.1664 7.43623L12.4879 7.11743ZM16.8369 7.80541C16.8013 7.86021 16.7583 7.90999 16.7058 7.95415C16.5433 8.09094 16.3133 8.15386 16.0091 8.18161L15.8135 9.34932C16.1841 9.45806 16.5289 9.56675 16.8414 9.67195C16.8778 9.51083 16.9224 9.35341 16.9766 9.19533C16.9273 9.14602 16.8808 9.0929 16.8366 9.02458C16.7725 8.92546 16.7173 8.80115 16.6561 8.61835L16.5829 8.39982L16.8124 8.42136C16.9846 8.43754 17.1008 8.42196 17.3522 8.34128C17.4402 8.1732 17.539 7.99756 17.6493 7.81032C17.6377 7.81448 17.6261 7.81842 17.6146 7.82214C17.457 7.8731 17.3101 7.88421 17.1359 7.86317C17.0454 7.85224 16.9475 7.83263 16.8369 7.80541ZM18.6996 7.25924C18.9243 7.27579 19.0429 7.31502 19.1266 7.36587C19.1048 7.36955 19.0839 7.3723 19.0636 7.37426C18.9463 7.38558 18.8294 7.37238 18.6556 7.32815L18.274 7.23102L18.2749 7.22796L18.6996 7.25924ZM18.2648 7.22722L18.2664 7.22908L18.2568 7.22662L18.2648 7.22722ZM18.478 6.78494L18.3533 6.95846L18.4264 6.70703C18.4782 6.52892 18.5348 6.44485 18.6032 6.38555C18.6234 6.36807 18.6465 6.35105 18.6738 6.33407C18.6715 6.35803 18.6683 6.38075 18.6641 6.40268C18.6434 6.5099 18.5949 6.62231 18.478 6.78494ZM17.9116 6.81978L18.1074 7.04563L17.8148 6.83176C17.7243 6.76564 17.6726 6.70582 17.6289 6.60884C17.6195 6.58801 17.6103 6.56519 17.6014 6.5399C17.6962 6.59796 17.7909 6.68053 17.9116 6.81978ZM17.7346 7.35793L18.1437 7.2185L18.1441 7.21997L17.7676 7.42615C17.5938 7.52137 17.4765 7.5592 17.3655 7.56988C17.358 7.57061 17.3505 7.57121 17.3428 7.57171L17.3562 7.55903C17.4371 7.48463 17.5439 7.42291 17.7346 7.35793ZM18.2117 7.69009L18.2124 7.44067L18.295 7.70756C18.3455 7.87089 18.3464 7.97505 18.3224 8.07395C18.3164 8.09835 18.3087 8.12357 18.299 8.15026C18.293 8.13909 18.2874 8.12799 18.2822 8.1169C18.2373 8.02037 18.2112 7.89921 18.2117 7.69009ZM13.726 4.78409L13.7806 4.92672L13.4649 5.1168L13.3541 5.00987L13.726 4.78409ZM13.0057 5.09055L13.1989 5.27696L13.0052 5.39356C12.9563 5.23621 12.9155 5.07968 12.8825 4.93177L12.9906 5.07357L12.9975 5.08264L13.0057 5.09055ZM13.5538 6.49914C13.3758 6.29275 13.2252 6.00191 13.1048 5.68378L13.5209 5.43322L14.0429 5.11895L14.043 5.11898L14.0454 5.11744L14.5306 4.81242C14.4626 5.0837 14.386 5.38464 14.2675 5.67122C14.1062 6.06116 13.886 6.37219 13.5538 6.49914ZM13.6921 6.76706C13.6767 6.77344 13.661 6.77954 13.6451 6.78534L13.3901 8.73633C13.6416 8.79021 13.8886 8.84616 14.1302 8.90355C14.1795 8.64403 14.2413 8.35585 14.3194 8.02705L13.8002 6.98408L13.6921 6.76706ZM11.9868 8.77176C12.3486 8.83326 12.7062 8.90083 13.0566 8.97287L12.7582 11.2558C12.6262 11.2963 12.5077 11.3742 12.3927 11.478C12.3492 11.3393 12.2695 11.2339 12.1362 11.1742C12.0367 11.1295 11.9233 11.1192 11.8083 11.1227C11.731 11.125 11.6465 11.1339 11.5563 11.1465C11.551 11.1264 11.5455 11.1068 11.5398 11.0877C11.755 10.3449 11.8632 9.68909 11.956 9.0037C11.9665 8.92676 11.9767 8.84951 11.9868 8.77176ZM13.3511 9.03479L13.064 11.2306C13.2045 11.2478 13.3513 11.3014 13.5113 11.3839C13.6375 11.2418 13.7672 11.134 13.918 11.0745L13.918 11.0734C13.9323 10.6125 13.9447 10.2134 14.0005 9.73693C14.0201 9.56913 14.0451 9.39203 14.0773 9.19934C13.84 9.14284 13.5976 9.0878 13.3511 9.03479ZM14.7619 11.161C14.562 11.0776 14.3846 11.027 14.2198 11.0228C14.2326 10.6138 14.2451 10.26 14.2894 9.85224L14.8024 9.59667L14.6786 9.3483C14.9534 9.41903 15.219 9.49107 15.4734 9.56338L15.27 10.7775C15.0749 10.8335 14.9165 10.9749 14.7619 11.161ZM14.6453 9.33974L14.3348 9.49444C14.3453 9.42212 14.3568 9.34755 14.3696 9.2703C14.4624 9.29328 14.5544 9.31644 14.6453 9.33974ZM14.436 8.97768L14.4221 8.97426C14.4722 8.70935 14.5358 8.41263 14.6175 8.07033L15.1473 7.28671C15.1546 7.48265 15.1995 7.6436 15.3054 7.78574C15.4019 7.91528 15.5411 8.01771 15.7153 8.11958L15.5233 9.26569C15.1789 9.16819 14.8149 9.07136 14.436 8.97768ZM14.77 7.30915L14.4976 7.71195L14.2906 7.29607L14.4151 7.36793L14.4901 7.23802L14.5877 7.06892L14.77 7.30915ZM16.5126 7.72465C16.4134 7.80821 16.2421 7.86486 15.9149 7.88825C15.7247 7.78086 15.6133 7.69698 15.5459 7.6065C15.5082 7.55588 15.4809 7.49843 15.4645 7.42389C15.5868 7.45339 15.7026 7.46756 15.8151 7.46136C15.9966 7.45137 16.1578 7.38921 16.3164 7.27557C16.4013 7.21476 16.4855 7.13923 16.5719 7.04948C16.6108 7.12324 16.6505 7.20418 16.6912 7.29227C16.6597 7.52425 16.605 7.64689 16.5126 7.72465ZM15.7868 7.16235C15.7074 7.16526 15.6186 7.1539 15.5132 7.12686C15.5354 7.08642 15.5572 7.04806 15.5787 7.01175C15.6429 7.07224 15.7092 7.12044 15.7823 7.15993L15.7868 7.16235ZM15.9249 6.89597C15.8657 6.86404 15.8096 6.82189 15.7482 6.75739C15.9054 6.55407 16.0174 6.50655 16.0896 6.51094C16.1313 6.51348 16.1842 6.53346 16.2509 6.59212C16.3012 6.63625 16.3549 6.69857 16.4121 6.78123C16.3335 6.86763 16.2621 6.93669 16.1949 6.99108C16.0792 6.96204 15.9966 6.93473 15.9249 6.89597ZM15.5771 10.7602L15.7635 9.64734C16.1328 9.75615 16.4753 9.86466 16.7843 9.9693C16.7567 10.1412 16.7371 10.3198 16.7242 10.5098C16.5824 10.4932 16.4503 10.5109 16.3279 10.5776C16.1987 10.6479 16.0969 10.764 16.0079 10.9116C15.8531 10.8327 15.7113 10.7801 15.5771 10.7602ZM17.02 10.5843C17.0311 10.4018 17.0482 10.2316 17.0724 10.0691C17.1892 10.1106 17.3001 10.1512 17.4046 10.1907C17.5287 10.2376 17.6433 10.2828 17.748 10.326C17.5562 10.3747 17.4081 10.5044 17.2751 10.6919C17.1848 10.6493 17.1 10.6132 17.02 10.5843ZM17.8531 10.6102C17.9722 10.5906 18.1291 10.6219 18.3677 10.7212C16.7505 13.2481 15.5337 14.8119 13.7549 16.4876C13.1888 17.0209 12.565 17.5662 11.8524 18.1579L11.8418 18.1553C11.8051 18.1456 11.7496 18.1223 11.675 18.0804C11.5273 17.9973 11.3297 17.8551 11.1002 17.6576C10.6422 17.2636 10.0718 16.6621 9.53847 15.9097C8.89457 15.0014 8.30895 13.8794 8.03689 12.6434C8.17673 12.4754 8.44391 12.3375 8.75838 12.2772C9.09988 12.2116 9.45167 12.2465 9.68779 12.3916L9.79182 12.4555L9.87552 12.3666C10.0928 12.1359 10.2382 12.0189 10.3802 11.9842C10.51 11.9524 10.6727 11.9827 10.9448 12.1597L11.0564 12.2323L11.1417 12.1301C11.298 11.9428 11.4204 11.8585 11.5624 11.8315C11.7127 11.803 11.9129 11.833 12.2376 11.9458L12.3335 11.9791L12.4 11.9024C12.6172 11.6524 12.7627 11.5476 12.9127 11.5281C13.0421 11.5112 13.2089 11.5534 13.4725 11.7044L13.5837 11.7681L13.664 11.6682C13.8347 11.4557 13.9625 11.3617 14.0962 11.3329C14.2406 11.3017 14.4297 11.3378 14.7453 11.481L14.8533 11.53L14.9259 11.4362C15.1302 11.1723 15.2677 11.0692 15.4167 11.0534C15.545 11.0399 15.7176 11.0869 15.9929 11.2447L16.1303 11.3234L16.2015 11.182C16.3 10.9865 16.3864 10.8873 16.4713 10.8411C16.5496 10.7985 16.6528 10.7872 16.823 10.8356C16.9414 10.8693 17.0839 10.9296 17.2601 11.0186L17.3833 11.0808L17.4556 10.9632C17.6051 10.7196 17.7246 10.6314 17.8531 10.6102ZM11.8688 18.1602C11.869 18.1602 11.8691 18.1602 11.869 18.1601C11.869 18.1601 11.8682 18.16 11.8667 18.1602L11.8688 18.1602ZM8.70182 11.9826C8.39149 12.0421 8.08386 12.1749 7.87775 12.3745C7.23977 11.5712 6.80254 10.548 6.56902 9.73244C6.44543 9.30081 6.38151 8.93635 6.37265 8.70042C6.36985 8.6258 6.37299 8.57219 6.37809 8.53637L6.38838 8.53491C6.42644 8.52949 6.46466 8.52427 6.50303 8.51925C6.6697 8.50153 6.76665 8.51726 6.83463 8.55575C6.91518 8.60135 6.98961 8.6988 7.07186 8.92575L7.11259 9.03814L7.23123 9.02352C7.47108 8.99395 7.60192 8.99866 7.69011 9.04269C7.76759 9.08136 7.84374 9.16833 7.91483 9.40589L7.95211 9.53045L8.0807 9.51123C8.269 9.4831 8.3956 9.48159 8.48375 9.49956C8.56437 9.516 8.61138 9.54817 8.64816 9.59785C8.69009 9.65449 8.7253 9.74297 8.75803 9.88484L8.78964 10.0219L8.92842 9.99915C9.19345 9.95576 9.32735 9.96853 9.40772 10.014C9.48106 10.0554 9.54605 10.146 9.60444 10.3762L9.63826 10.5096L9.77407 10.4874C9.87787 10.4704 9.9636 10.4615 10.0354 10.4607C10.1756 10.4592 10.2481 10.4885 10.2975 10.5346C10.353 10.5864 10.4037 10.6816 10.4501 10.8645L10.488 11.0138L10.6363 10.9719C10.8743 10.9047 11.0043 10.9015 11.0803 10.9275C11.1403 10.948 11.1928 10.9965 11.2409 11.138C11.2603 11.1948 11.2776 11.2632 11.2941 11.3453L11.3225 11.4871L11.4653 11.4639C11.6072 11.4407 11.7226 11.4254 11.8173 11.4226C11.9131 11.4197 11.9739 11.4302 12.0135 11.4479C12.0491 11.4639 12.0891 11.4959 12.1137 11.5919C11.8813 11.5268 11.6845 11.503 11.5064 11.5368C11.3049 11.5751 11.147 11.6828 10.9978 11.8403C10.7476 11.6961 10.5275 11.6392 10.3088 11.6928C10.1005 11.7438 9.92136 11.8903 9.73696 12.0778C9.4297 11.9331 9.0457 11.9165 8.70182 11.9826ZM7.31076 8.71309C7.26857 8.61348 7.22111 8.52589 7.1635 8.4529C7.5822 8.42272 8.01495 8.41266 8.45608 8.41969C8.44559 8.66233 8.42028 8.90792 8.38415 9.18829C8.31542 9.1863 8.24129 9.19005 8.16151 9.19843C8.08573 8.99762 7.98296 8.85357 7.8241 8.77427C7.6755 8.70009 7.50037 8.6958 7.31076 8.71309ZM8.67886 9.24854C8.71742 8.95193 8.74493 8.6894 8.75604 8.42704C9.20324 8.44172 9.65765 8.47303 10.1135 8.51789C10.0699 9.07946 10.006 9.55821 9.9055 10.1676C9.88981 10.1691 9.8739 10.1708 9.85775 10.1726C9.79615 9.98632 9.70741 9.83872 9.55532 9.75277C9.40726 9.6691 9.22529 9.65983 9.01494 9.68401C8.98421 9.5843 8.94485 9.4944 8.88927 9.41934C8.83269 9.34292 8.76285 9.28649 8.67886 9.24854ZM10.2085 10.1739C10.306 9.57859 10.3687 9.10263 10.412 8.54914C10.8396 8.59659 11.2674 8.65536 11.6907 8.72293C11.6801 8.80383 11.6695 8.88394 11.6587 8.96342C11.5786 9.55473 11.4881 10.1157 11.328 10.7274C11.2852 10.692 11.2356 10.6636 11.1775 10.6437C11.0423 10.5974 10.8823 10.6061 10.6986 10.6467C10.6527 10.5123 10.5919 10.3991 10.5022 10.3153C10.4182 10.2369 10.3193 10.1936 10.2085 10.1739ZM10.64 6.90292C10.5447 6.95307 10.4357 7.01049 10.3279 7.08196C10.0025 6.84902 9.78676 6.67281 9.66675 6.4939C9.60451 6.4011 9.57012 6.31005 9.56035 6.21095C9.55281 6.13449 9.55944 6.04807 9.58453 5.94662C9.64584 5.94848 9.72557 5.95594 9.80607 5.97701C9.97078 6.02013 10.1092 6.10927 10.1443 6.29994C10.2094 6.65333 10.4812 6.80102 10.7017 6.85873L10.7163 6.86244L10.7072 6.8673C10.6859 6.87877 10.6634 6.89057 10.6402 6.9028L10.6402 6.90281L10.64 6.90292ZM10.31 5.44884C10.1757 5.42805 10.0072 5.48322 9.80128 5.66875C9.82763 5.67368 9.85467 5.67962 9.88204 5.68679C10.0793 5.73842 10.3176 5.86208 10.4122 6.14065C10.5306 6.157 10.6088 6.15335 10.6723 6.13341C10.7315 6.11484 10.7908 6.07791 10.8637 6.00245C10.6701 5.63295 10.4797 5.47513 10.31 5.44884ZM10.7776 6.56851C10.6893 6.54539 10.6086 6.50905 10.5473 6.45092C10.6219 6.45058 10.6931 6.44132 10.7622 6.41963C10.8469 6.39302 10.9216 6.34993 10.9918 6.29235C11.0419 6.44217 11.0403 6.5358 11.0197 6.59933L11.0023 6.59898C10.9406 6.59729 10.8595 6.58994 10.7776 6.56851ZM8.75099 6.5342C8.69957 6.54981 8.63945 6.55922 8.55839 6.56506L8.4604 6.30511C8.58652 6.36577 8.68931 6.43088 8.79987 6.51638C8.78383 6.5233 8.76765 6.52915 8.75099 6.5342ZM8.28272 7.49606C8.32208 7.46911 8.36439 7.44506 8.4134 7.42102C8.4222 7.4941 8.4297 7.56466 8.43597 7.63318C8.362 7.64191 8.30582 7.64106 8.25644 7.63245C8.22387 7.62677 8.19151 7.61723 8.15655 7.60215C8.19919 7.55904 8.24011 7.52523 8.28272 7.49606ZM6.62141 18.4045L9.38616 16.2117C9.90634 16.9239 10.4544 17.4977 10.9045 17.885C11.1424 18.0897 11.3567 18.2455 11.5279 18.3418C11.6127 18.3896 11.6934 18.4264 11.765 18.4453C11.8257 18.4614 11.9283 18.478 12.0117 18.4153L12.0118 18.4155L12.0174 18.4108C12.694 17.8497 13.2928 17.3289 13.8392 16.8197L16.0962 19.7777L16.081 19.7746C16.016 19.7621 15.955 19.759 15.8965 19.7694C15.8363 19.7801 15.7872 19.8035 15.7451 19.8325C15.6903 19.8702 15.6519 19.9077 15.6132 19.9456L15.6132 19.9456C15.5408 20.0165 15.4671 20.0886 15.2819 20.1656C14.8935 19.9609 14.5704 19.8455 14.2373 19.8097C13.9034 19.7737 13.5715 19.8191 13.1694 19.9169C12.8179 19.7244 12.5143 19.6054 12.182 19.5648C11.8506 19.5244 11.5027 19.5635 11.0647 19.6681C10.724 19.4426 10.4212 19.3094 10.0812 19.2693C9.74328 19.2294 9.3826 19.2831 8.92978 19.4053C8.56624 19.146 8.09906 18.8442 7.60982 18.6407C7.29107 18.5081 6.95232 18.4127 6.62141 18.4045ZM17.0161 8.72344C17.0683 8.71938 17.1203 8.71179 17.1754 8.70048C17.1483 8.7596 17.1227 8.81813 17.0983 8.87629L17.0885 8.8616C17.0652 8.82558 17.0416 8.78173 17.0161 8.72344ZM8.90399 13.0327C9.33499 14.9621 10.1169 15.8643 11.2009 17.1151L11.3316 17.266L11.5585 17.0698L11.433 16.9249C10.3502 15.6751 9.61113 14.8222 9.19677 12.9673L8.90399 13.0327ZM14.9801 19.4468C14.7726 19.2988 14.6265 19.1681 14.4974 18.9615C14.3655 18.7504 14.2463 18.4518 14.1101 17.96L13.821 18.04C13.9596 18.5406 14.0879 18.8724 14.243 19.1205C14.4009 19.3732 14.5812 19.5308 14.806 19.6911L14.9801 19.4468ZM12.9599 18.2983C12.9665 18.6307 12.993 18.872 13.0509 19.0805C13.1095 19.2911 13.1978 19.4599 13.3166 19.6488L13.5706 19.4891C13.4598 19.3129 13.3877 19.1717 13.34 19.0002C13.2917 18.8266 13.2662 18.6137 13.2599 18.2924L12.9599 18.2983ZM9.1818 19.0723C9.51009 18.4757 9.67456 18.0807 9.89529 17.2045L9.60438 17.1312C9.38943 17.9845 9.23397 18.3553 8.91897 18.9277L9.1818 19.0723ZM7.99784 18.4264C8.51509 18.1384 8.77565 17.8114 9.18184 17.0722L8.91892 16.9278C8.52348 17.6473 8.29678 17.9166 7.85187 18.1643L7.99784 18.4264ZM7.49759 5.95777C7.54845 5.87411 7.58767 5.75551 7.60423 5.53077L7.63551 5.10613L7.63244 5.10524L7.53532 5.48678C7.49108 5.66057 7.47789 5.77754 7.48921 5.89475C7.49117 5.91505 7.49392 5.93597 7.49759 5.95777ZM7.63438 5.09762L7.63625 5.096L7.63684 5.08795L7.63438 5.09762ZM7.90501 5.18448L8.07853 5.30922C8.24116 5.42613 8.35356 5.47462 8.46079 5.49525C8.48272 5.49947 8.50543 5.50272 8.5294 5.50501C8.51242 5.47772 8.49539 5.45459 8.47792 5.43442C8.41862 5.36596 8.33455 5.30936 8.15644 5.25758L7.90501 5.18448ZM7.81784 4.9386L8.04369 4.74282C8.18294 4.62211 8.26551 4.52743 8.32357 4.43258C8.29828 4.44153 8.27545 4.45067 8.25463 4.46005C8.15765 4.50376 8.09783 4.55552 8.0317 4.64599L7.81784 4.9386ZM7.64497 4.97485L7.50554 4.56574C7.44056 4.37507 7.37884 4.26831 7.30444 4.1874L7.29176 4.17398C7.29225 4.18165 7.29286 4.18923 7.29358 4.19672C7.30426 4.30774 7.3421 4.42496 7.43732 4.59882L7.64349 4.9753L7.64497 4.97485ZM7.4228 5.0436L7.17338 5.04292C6.96426 5.04235 6.84309 5.06848 6.74657 5.11343C6.73548 5.1186 6.72438 5.12416 6.7132 5.13019C6.7399 5.13993 6.76512 5.14763 6.78952 5.15355C6.88842 5.17757 6.99258 5.17672 7.15591 5.12618L7.4228 5.0436Z" fill="black"/>
</svg>
