<svg width="24" height="24" viewBox="0 0 24 24" fill="none" xmlns="http://www.w3.org/2000/svg">
<rect x="2.5" y="2.5" width="19" height="19" rx="4.5" stroke="url(#paint0_linear_11_12)"/>
<mask id="path-2-inside-1_11_12" fill="white">
<path fill-rule="evenodd" clip-rule="evenodd" d="M17.3259 5.55551C17.7017 6.04772 17.9277 6.61388 17.9853 7.20047C18.0015 7.36536 17.8657 7.5 17.7 7.5H14.6018C14.4388 7.5 14.3056 7.63017 14.3019 7.79315L14.2356 10.6931C14.2317 10.8615 14.3671 11 14.5355 11H16.7C16.8657 11 17 11.1343 17 11.3V13.7C17 13.8657 16.8657 14 16.7 14H14.4532C14.2902 14 14.157 14.1302 14.1533 14.2931L14.0067 20.7069C14.003 20.8698 13.8698 21 13.7068 21H10.2878C10.1269 21 9.99486 20.8753 9.98856 20.7146C9.95444 19.845 9.85279 17.1156 9.80421 14.2953C9.80138 14.1315 9.66787 14 9.50404 14H7.3C7.13431 14 7 13.8657 7 13.7V11.3C7 11.1343 7.13431 11 7.3 11H9.48045C9.64557 11 9.77959 10.8664 9.78092 10.7013C9.7947 8.98719 9.85571 7.57718 10 7C10.0289 6.88423 10.0638 6.78185 10.104 6.69172C10.1108 6.67666 10.1165 6.6612 10.1211 6.64535C10.2972 6.03323 10.6597 5.47302 11.1716 5.02513C11.731 4.53564 12.4437 4.2023 13.2196 4.06725C13.9956 3.9322 14.7998 4.00152 15.5307 4.26642C16.2616 4.53133 16.8864 4.97993 17.3259 5.55551Z"/>
</mask>
<path fill-rule="evenodd" clip-rule="evenodd" d="M17.3259 5.55551C17.7017 6.04772 17.9277 6.61388 17.9853 7.20047C18.0015 7.36536 17.8657 7.5 17.7 7.5H14.6018C14.4388 7.5 14.3056 7.63017 14.3019 7.79315L14.2356 10.6931C14.2317 10.8615 14.3671 11 14.5355 11H16.7C16.8657 11 17 11.1343 17 11.3V13.7C17 13.8657 16.8657 14 16.7 14H14.4532C14.2902 14 14.157 14.1302 14.1533 14.2931L14.0067 20.7069C14.003 20.8698 13.8698 21 13.7068 21H10.2878C10.1269 21 9.99486 20.8753 9.98856 20.7146C9.95444 19.845 9.85279 17.1156 9.80421 14.2953C9.80138 14.1315 9.66787 14 9.50404 14H7.3C7.13431 14 7 13.8657 7 13.7V11.3C7 11.1343 7.13431 11 7.3 11H9.48045C9.64557 11 9.77959 10.8664 9.78092 10.7013C9.7947 8.98719 9.85571 7.57718 10 7C10.0289 6.88423 10.0638 6.78185 10.104 6.69172C10.1108 6.67666 10.1165 6.6612 10.1211 6.64535C10.2972 6.03323 10.6597 5.47302 11.1716 5.02513C11.731 4.53564 12.4437 4.2023 13.2196 4.06725C13.9956 3.9322 14.7998 4.00152 15.5307 4.26642C16.2616 4.53133 16.8864 4.97993 17.3259 5.55551Z" fill="url(#paint1_linear_11_12)"/>
<path d="M17.3259 5.55551L17.5643 5.37343L17.5643 5.37343L17.3259 5.55551ZM10 7L9.70896 6.92724L9.70896 6.92724L10 7ZM11.1716 5.02513L10.974 4.79935L10.974 4.79935L11.1716 5.02513ZM13.2196 4.06725L13.2711 4.36281L13.2711 4.36281L13.2196 4.06725ZM15.5307 4.26642L15.633 3.98438L15.633 3.98438L15.5307 4.26642ZM10.104 6.69172L9.83011 6.5694L10.104 6.69172ZM10.1211 6.64535L9.83279 6.56238L10.1211 6.64535ZM9.78092 10.7013L9.48093 10.6989L9.48093 10.6989L9.78092 10.7013ZM9.80421 14.2953L9.50425 14.3004L9.80421 14.2953ZM9.98856 20.7146L9.68879 20.7263L9.98856 20.7146ZM14.1533 14.2931L13.8534 14.2863L14.1533 14.2931ZM14.2356 10.6931L13.9357 10.6863L14.2356 10.6931ZM14.3019 7.79315L14.6018 7.8L14.3019 7.79315ZM17.9853 7.20047L17.6868 7.22978L17.9853 7.20047ZM18.2839 7.17116C18.2206 6.52664 17.9725 5.90802 17.5643 5.37343L17.0874 5.73758C17.431 6.18742 17.6349 6.70112 17.6868 7.22978L18.2839 7.17116ZM14.6018 7.8H17.7V7.2H14.6018V7.8ZM14.5355 10.7L14.6018 7.8L14.002 7.78629L13.9357 10.6863L14.5355 10.7ZM16.7 10.7H14.5355V11.3H16.7V10.7ZM17.3 13.7V11.3H16.7V13.7H17.3ZM14.4532 14.3H16.7V13.7H14.4532V14.3ZM14.3066 20.7137L14.4532 14.3L13.8534 14.2863L13.7068 20.7L14.3066 20.7137ZM10.2878 21.3H13.7068V20.7H10.2878V21.3ZM9.50425 14.3004C9.55289 17.124 9.65464 19.8559 9.68879 20.7263L10.2883 20.7028C10.2542 19.8341 10.1527 17.1072 10.1042 14.2901L9.50425 14.3004ZM7.3 14.3H9.50404V13.7H7.3V14.3ZM6.7 11.3V13.7H7.3V11.3H6.7ZM9.48045 10.7H7.3V11.3H9.48045V10.7ZM9.70896 6.92724C9.62905 7.24686 9.57692 7.76998 9.54196 8.40788C9.50659 9.05338 9.48783 9.83959 9.48093 10.6989L10.0809 10.7037C10.0878 9.84887 10.1064 9.07303 10.1411 8.44071C10.1761 7.80079 10.2267 7.33032 10.291 7.07276L9.70896 6.92724ZM9.83011 6.5694C9.7817 6.67778 9.74151 6.79706 9.70896 6.92724L10.291 7.07276C10.3164 6.97139 10.3459 6.88593 10.378 6.81405L9.83011 6.5694ZM10.974 4.79935C10.4217 5.28267 10.0259 5.89143 9.83279 6.56238L10.4094 6.72831C10.5686 6.17503 10.8977 5.66336 11.3691 5.2509L10.974 4.79935ZM13.1682 3.7717C12.3415 3.91559 11.5773 4.27147 10.974 4.79935L11.3691 5.2509C11.8847 4.79981 12.546 4.48901 13.2711 4.36281L13.1682 3.7717ZM15.633 3.98438C14.8522 3.70141 13.9949 3.6278 13.1682 3.7717L13.2711 4.36281C13.9962 4.23661 14.7474 4.30163 15.4285 4.54847L15.633 3.98438ZM17.5643 5.37343C17.0873 4.74879 16.4138 4.26737 15.633 3.98438L15.4285 4.54847C16.1095 4.79529 16.6854 5.21108 17.0874 5.73758L17.5643 5.37343ZM10.378 6.81405C10.3898 6.7875 10.4006 6.75889 10.4094 6.72831L9.83279 6.56238C9.83246 6.56351 9.8317 6.56582 9.83011 6.5694L10.378 6.81405ZM9.48045 11.3C9.81119 11.3 10.0783 11.0327 10.0809 10.7037L9.48093 10.6989C9.48092 10.6993 9.48105 10.6993 9.48049 10.6999C9.48019 10.7002 9.48004 10.7002 9.48025 10.7001C9.48066 10.7 9.48093 10.7 9.48045 10.7V11.3ZM7.3 13.7L7.3 13.7H6.7C6.7 14.0314 6.96863 14.3 7.3 14.3V13.7ZM10.1042 14.2901C10.0985 13.963 9.83185 13.7 9.50404 13.7V14.3L9.50425 14.3004L10.1042 14.2901ZM10.2878 20.7C10.2862 20.7 10.2865 20.6997 10.287 20.7002C10.2871 20.7003 10.2875 20.7008 10.2879 20.7016C10.2883 20.7025 10.2883 20.7032 10.2883 20.7028L9.68879 20.7263C9.70153 21.051 9.96887 21.3 10.2878 21.3V20.7ZM13.7068 20.7L13.7068 20.7V21.3C14.0328 21.3 14.2992 21.0397 14.3066 20.7137L13.7068 20.7ZM14.4532 13.7C14.1272 13.7 13.8608 13.9603 13.8534 14.2863L14.4532 14.3L14.4532 14.3V13.7ZM16.7 11.3L16.7 11.3H17.3C17.3 10.9686 17.0314 10.7 16.7 10.7V11.3ZM13.9357 10.6863C13.928 11.0229 14.1988 11.3 14.5355 11.3V10.7L14.5355 10.7L13.9357 10.6863ZM14.6018 7.2C14.2758 7.2 14.0094 7.46035 14.002 7.78629L14.6018 7.8L14.6018 7.8V7.2ZM16.7 13.7L16.7 13.7V14.3C17.0314 14.3 17.3 14.0314 17.3 13.7H16.7ZM7.3 11.3L7.3 11.3V10.7C6.96863 10.7 6.7 10.9686 6.7 11.3H7.3ZM17.6868 7.22978C17.6864 7.22573 17.6869 7.21998 17.689 7.21414C17.691 7.2087 17.6936 7.20515 17.6955 7.20319C17.699 7.19965 17.7011 7.2 17.7 7.2V7.8C18.0226 7.8 18.3193 7.53215 18.2839 7.17116L17.6868 7.22978Z" fill="url(#paint2_linear_11_12)" mask="url(#path-2-inside-1_11_12)"/>
<defs>
<linearGradient id="paint0_linear_11_12" x1="12" y1="2" x2="12" y2="22" gradientUnits="userSpaceOnUse">
<stop stop-color="#283C86"/>
<stop offset="1" stop-color="#45A247"/>
</linearGradient>
<linearGradient id="paint1_linear_11_12" x1="12.4933" y1="4" x2="12.4933" y2="21" gradientUnits="userSpaceOnUse">
<stop stop-color="#283C86"/>
<stop offset="1" stop-color="#45A247"/>
</linearGradient>
<linearGradient id="paint2_linear_11_12" x1="12.4933" y1="4" x2="12.4933" y2="21" gradientUnits="userSpaceOnUse">
<stop stop-color="#283C86"/>
<stop offset="1" stop-color="#45A247"/>
</linearGradient>
</defs>
</svg>
