<svg width="24" height="24" viewBox="0 0 24 24" fill="none" xmlns="http://www.w3.org/2000/svg">
<path d="M2.17143 6.13571L21.8 6.13571" stroke="black" stroke-width="0.3"/>
<rect x="3.15" y="6.15" width="17.7" height="14.7" stroke="black" stroke-width="0.3"/>
<rect x="6.15" y="9.15" width="3.7" height="3.7" stroke="black" stroke-width="0.3"/>
<rect x="14.15" y="9.15" width="3.7" height="3.7" stroke="black" stroke-width="0.3"/>
<path d="M9.15 20.85V14.0974C10.2707 13.6014 11.1396 13.3533 12.0007 13.3497C12.8616 13.346 13.7302 13.5866 14.85 14.0962V20.85H9.15Z" stroke="black" stroke-width="0.3"/>
<path d="M6 6L7 3M6 6C4.47212 7.41723 3.60184 7.58575 2 6L4 3L7 3M6 6C7.56208 7.39566 8.43788 7.49054 10 6M10 6C11.6166 7.20013 12.4903 7.14889 14 6M10 6L10.3429 3M14 6V3M14 6C15.5623 7.20112 16.4377 7.25458 18 6M18 6L17 3M18 6C19.5619 7.30907 20.4376 7.41695 22 6L20 3L17 3M7 3L10 3H10.3429M14 3L17 3M14 3L10.3429 3" stroke="black" stroke-width="0.5"/>
<mask id="path-7-inside-1_15_90" fill="white">
<path fill-rule="evenodd" clip-rule="evenodd" d="M10.6735 15.3672C10.6733 15.2063 10.634 15.0961 10.5481 14.96C10.5305 14.9323 10.5111 14.9035 10.4896 14.873C10.4661 14.9021 10.4448 14.9296 10.4255 14.956C10.3201 15.1009 10.2783 15.2131 10.2929 15.3692C10.2962 15.4043 10.3024 15.4417 10.3113 15.4822C10.2724 15.4673 10.2364 15.4552 10.2023 15.4458C10.0707 15.4098 9.968 15.4145 9.83519 15.4509C9.80357 15.4596 9.77024 15.4701 9.73441 15.4822C9.75635 15.5128 9.77711 15.5409 9.7969 15.5668C9.91575 15.7225 9.99961 15.7979 10.0944 15.8337C10.1279 15.8464 10.1628 15.8541 10.2011 15.8587C10.1763 15.8903 10.1546 15.9202 10.1357 15.9494C10.0512 16.0796 10.0225 16.1942 10.021 16.3633C10.0206 16.396 10.0214 16.4307 10.0229 16.4679C10.0586 16.4565 10.0914 16.445 10.1217 16.4331C10.26 16.3785 10.3469 16.3132 10.4297 16.1908C10.4497 16.1612 10.4694 16.1283 10.4896 16.0914C10.509 16.1289 10.528 16.1623 10.5472 16.1922C10.6317 16.3236 10.7197 16.3874 10.8571 16.4367C10.8876 16.4476 10.9205 16.4579 10.9563 16.4679C10.9573 16.4312 10.9579 16.3967 10.9577 16.3643C10.9569 16.18 10.9341 16.0594 10.8481 15.941C10.8283 15.9137 10.8051 15.8865 10.7781 15.8587C10.8151 15.8472 10.8489 15.8352 10.8803 15.8218C10.9982 15.7716 11.0831 15.7024 11.1862 15.5648C11.205 15.5396 11.2245 15.5122 11.2448 15.4822C11.2667 15.5128 11.2875 15.5409 11.3073 15.5668C11.4261 15.7225 11.51 15.7979 11.6048 15.8337C11.6383 15.8464 11.6732 15.8541 11.7115 15.8587C11.6867 15.8903 11.665 15.9202 11.6461 15.9494C11.5616 16.0796 11.5329 16.1942 11.5313 16.3633C11.531 16.396 11.5318 16.4307 11.5333 16.4679C11.569 16.4565 11.6018 16.445 11.6321 16.4331C11.7704 16.3785 11.8573 16.3132 11.9401 16.1908C11.9601 16.1612 11.9798 16.1283 12 16.0914C12.0194 16.1289 12.0384 16.1623 12.0576 16.1922C12.1421 16.3236 12.2301 16.3874 12.3675 16.4367C12.398 16.4476 12.4309 16.4579 12.4667 16.4679C12.4677 16.4312 12.4683 16.3967 12.4681 16.3643C12.4673 16.18 12.4445 16.0594 12.3585 15.941C12.3387 15.9137 12.3155 15.8865 12.2885 15.8587C12.3255 15.8472 12.3593 15.8352 12.3907 15.8218C12.5086 15.7716 12.5935 15.7024 12.6966 15.5648C12.7154 15.5396 12.7349 15.5122 12.7552 15.4822C12.7228 15.4659 12.6924 15.4516 12.6634 15.4394C12.5325 15.3845 12.4285 15.3742 12.2821 15.433C12.2498 15.446 12.2154 15.4623 12.1783 15.4822C12.182 15.4408 12.1839 15.4028 12.1839 15.3672C12.1837 15.2063 12.1444 15.0961 12.0585 14.96C12.0409 14.9323 12.0215 14.9035 12 14.873C11.9765 14.9021 11.9552 14.9296 11.9359 14.956C11.8305 15.1009 11.7887 15.2131 11.8033 15.3692C11.8066 15.4043 11.8128 15.4417 11.8217 15.4822C11.7828 15.4673 11.7468 15.4552 11.7127 15.4458C11.5811 15.4098 11.4784 15.4145 11.3456 15.4509C11.314 15.4596 11.2806 15.4701 11.2448 15.4822C11.2124 15.4659 11.182 15.4516 11.153 15.4394C11.0221 15.3845 10.9181 15.3742 10.7717 15.433C10.7394 15.446 10.705 15.4623 10.6679 15.4822C10.6716 15.4408 10.6735 15.4028 10.6735 15.3672ZM11.0925 15.5229C11.044 15.5042 11.004 15.4949 10.9649 15.4935C10.9021 15.4913 10.8288 15.5094 10.7152 15.5703L10.5516 15.6581L10.5683 15.4732C10.5796 15.3482 10.5722 15.2633 10.5486 15.1875C10.5344 15.1421 10.5136 15.0972 10.4839 15.0468C10.4458 15.1029 10.4214 15.1504 10.4069 15.1966C10.3849 15.2673 10.3834 15.3447 10.409 15.4606L10.4491 15.6423L10.2755 15.5756C10.1701 15.5351 10.0953 15.5201 10.0243 15.5211C9.98571 15.5217 9.946 15.527 9.90068 15.5374C9.95728 15.609 10.0026 15.6568 10.0436 15.6896C10.0987 15.7336 10.1473 15.7516 10.213 15.7594L10.39 15.7807L10.2797 15.9206C10.2061 16.014 10.1667 16.0863 10.1451 16.1628C10.1318 16.21 10.1244 16.2617 10.1219 16.3246C10.1684 16.3038 10.2054 16.2819 10.2377 16.2563C10.2949 16.2111 10.3443 16.1486 10.4019 16.0434L10.4922 15.8785L10.5784 16.0455C10.6367 16.1583 10.6868 16.222 10.7429 16.2657C10.7748 16.2905 10.8113 16.311 10.8573 16.3297C10.8556 16.2539 10.8491 16.1943 10.8354 16.1425C10.8156 16.0675 10.779 16.0032 10.7064 15.9284L10.593 15.8118L10.7482 15.7633C10.8424 15.7339 10.9062 15.7039 10.9644 15.6577C11.0051 15.6255 11.0458 15.5832 11.0925 15.5229ZM12.6029 15.5229C12.5544 15.5042 12.5144 15.4949 12.4753 15.4935C12.4125 15.4913 12.3391 15.5094 12.2256 15.5703L12.062 15.6581L12.0787 15.4732C12.09 15.3482 12.0826 15.2633 12.059 15.1875C12.0448 15.1421 12.024 15.0972 11.9943 15.0468C11.9562 15.1029 11.9318 15.1504 11.9173 15.1966C11.8953 15.2673 11.8937 15.3447 11.9194 15.4606L11.9595 15.6423L11.7859 15.5756C11.6805 15.5351 11.6057 15.5201 11.5347 15.5211C11.4961 15.5217 11.4564 15.527 11.4111 15.5374C11.4677 15.609 11.513 15.6568 11.554 15.6896C11.6091 15.7336 11.6577 15.7516 11.7234 15.7594L11.9004 15.7807L11.7901 15.9206C11.7165 16.014 11.6771 16.0863 11.6555 16.1628C11.6422 16.21 11.6348 16.2617 11.6323 16.3246C11.6788 16.3038 11.7158 16.2819 11.7481 16.2563C11.8053 16.2111 11.8547 16.1486 11.9123 16.0434L12.0026 15.8785L12.0888 16.0455C12.1471 16.1583 12.1972 16.222 12.2533 16.2657C12.2852 16.2905 12.3217 16.311 12.3677 16.3297C12.366 16.2539 12.3595 16.1943 12.3458 16.1425C12.326 16.0675 12.2894 16.0032 12.2168 15.9284L12.1034 15.8118L12.2586 15.7633C12.3528 15.7339 12.4166 15.7039 12.4748 15.6577C12.5155 15.6255 12.5562 15.5832 12.6029 15.5229ZM13.5689 14.96C13.6548 15.0961 13.6941 15.2063 13.6943 15.3672C13.6943 15.4028 13.6924 15.4408 13.6887 15.4822C13.7259 15.4623 13.7602 15.446 13.7925 15.433C13.9389 15.3742 14.0429 15.3845 14.1738 15.4394C14.2028 15.4516 14.2332 15.4659 14.2656 15.4822C14.2453 15.5122 14.2258 15.5396 14.207 15.5648C14.104 15.7024 14.019 15.7716 13.9011 15.8218C13.8697 15.8352 13.8359 15.8472 13.7989 15.8587C13.8259 15.8865 13.8491 15.9137 13.8689 15.941C13.9549 16.0594 13.9777 16.18 13.9786 16.3643C13.9787 16.3967 13.9782 16.4312 13.9772 16.4679C13.9413 16.4579 13.9084 16.4476 13.8779 16.4367C13.7405 16.3874 13.6525 16.3236 13.568 16.1922C13.5488 16.1623 13.5298 16.1289 13.5104 16.0914C13.4902 16.1283 13.4705 16.1612 13.4505 16.1908C13.3677 16.3132 13.2808 16.3785 13.1425 16.4331C13.1122 16.445 13.0794 16.4565 13.0437 16.4679C13.0422 16.4307 13.0415 16.396 13.0418 16.3633C13.0433 16.1942 13.072 16.0796 13.1565 15.9494C13.1754 15.9202 13.1971 15.8903 13.222 15.8587C13.1836 15.8541 13.1487 15.8464 13.1152 15.8337C13.0204 15.7979 12.9366 15.7225 12.8177 15.5668C12.7979 15.5409 12.7772 15.5128 12.7552 15.4822C12.791 15.4701 12.8244 15.4596 12.856 15.4509C12.9888 15.4145 13.0915 15.4098 13.2231 15.4458C13.2572 15.4552 13.2932 15.4673 13.3321 15.4822C13.3232 15.4417 13.317 15.4043 13.3137 15.3692C13.2991 15.2131 13.3409 15.1009 13.4463 14.956C13.4656 14.9296 13.4869 14.9021 13.5104 14.873C13.5319 14.9035 13.5513 14.9323 13.5689 14.96ZM13.9857 15.4935C14.0248 15.4949 14.0649 15.5042 14.1133 15.5229C14.0666 15.5832 14.0259 15.6255 13.9852 15.6577C13.927 15.7039 13.8632 15.7339 13.769 15.7633L13.6138 15.8118L13.7272 15.9284C13.7999 16.0032 13.8364 16.0675 13.8562 16.1425C13.8699 16.1943 13.8764 16.2539 13.8781 16.3297C13.8321 16.311 13.7957 16.2905 13.7637 16.2657C13.7076 16.222 13.6575 16.1583 13.5993 16.0455L13.513 15.8785L13.4227 16.0434C13.3651 16.1486 13.3157 16.2111 13.2585 16.2563C13.2262 16.2819 13.1892 16.3038 13.1427 16.3246C13.1453 16.2617 13.1526 16.21 13.166 16.1628C13.1876 16.0863 13.2269 16.014 13.3005 15.9206L13.4108 15.7807L13.2339 15.7594C13.1681 15.7516 13.1195 15.7336 13.0644 15.6896C13.0234 15.6568 12.9781 15.609 12.9215 15.5374C12.9668 15.527 13.0065 15.5217 13.0451 15.5211C13.1161 15.5201 13.1909 15.5351 13.2963 15.5756L13.4699 15.6423L13.4298 15.4606C13.4042 15.3447 13.4057 15.2673 13.4277 15.1966C13.4422 15.1504 13.4666 15.1029 13.5047 15.0468C13.5344 15.0972 13.5552 15.1421 13.5694 15.1875C13.593 15.2633 13.6004 15.3482 13.5891 15.4732L13.5725 15.6581L13.736 15.5703C13.8496 15.5094 13.9229 15.4913 13.9857 15.4935Z"/>
</mask>
<path d="M10.5481 14.96L11.3934 14.4258L11.3934 14.4258L10.5481 14.96ZM10.6735 15.3672L9.67347 15.368L9.67347 15.368L10.6735 15.3672ZM10.4896 14.873L11.3075 14.2976L10.545 13.2137L9.71191 14.2444L10.4896 14.873ZM10.4255 14.956L9.61689 14.3677L9.61689 14.3677L10.4255 14.956ZM10.2929 15.3692L11.2885 15.2758L11.2885 15.2758L10.2929 15.3692ZM10.3113 15.4822L9.95281 16.4157L11.6892 17.0826L11.2878 15.2664L10.3113 15.4822ZM10.2023 15.4458L9.93792 16.4103L9.93792 16.4103L10.2023 15.4458ZM9.83519 15.4509L9.57059 14.4865L9.57059 14.4865L9.83519 15.4509ZM9.73441 15.4822L9.41315 14.5352L8.13478 14.9689L8.9221 16.0654L9.73441 15.4822ZM9.7969 15.5668L10.5917 14.96L10.5917 14.96L9.7969 15.5668ZM10.0944 15.8337L10.4481 14.8984L10.4481 14.8984L10.0944 15.8337ZM10.2011 15.8587L10.9866 16.4776L12.0894 15.078L10.3202 14.8658L10.2011 15.8587ZM10.1357 15.9494L10.9746 16.4936L10.9746 16.4936L10.1357 15.9494ZM10.021 16.3633L11.0209 16.3726L11.0209 16.3726L10.021 16.3633ZM10.0229 16.4679L9.02369 16.5085L9.07691 17.8203L10.3275 17.4204L10.0229 16.4679ZM10.1217 16.4331L9.75438 15.503L9.75438 15.503L10.1217 16.4331ZM10.4297 16.1908L9.60136 15.6305L9.60136 15.6305L10.4297 16.1908ZM10.4896 16.0914L11.378 15.6324L10.5151 13.9624L9.61245 15.6112L10.4896 16.0914ZM10.5472 16.1922L11.3884 15.6515L11.3884 15.6515L10.5472 16.1922ZM10.8571 16.4367L10.5194 17.3779L10.5194 17.3779L10.8571 16.4367ZM10.9563 16.4679L10.6856 17.4306L11.921 17.778L11.956 16.4952L10.9563 16.4679ZM10.9577 16.3643L11.9577 16.3599L11.9577 16.3599L10.9577 16.3643ZM10.8481 15.941L11.6572 15.3534L11.6572 15.3534L10.8481 15.941ZM10.7781 15.8587L10.4798 14.9042L8.92694 15.3895L10.0611 16.5559L10.7781 15.8587ZM10.8803 15.8218L10.489 14.9015L10.489 14.9015L10.8803 15.8218ZM11.1862 15.5648L11.9867 16.1641L11.9867 16.1641L11.1862 15.5648ZM11.2448 15.4822L12.0571 14.899L11.2214 13.735L10.4172 14.921L11.2448 15.4822ZM11.3073 15.5668L10.5125 16.1737L10.5125 16.1737L11.3073 15.5668ZM11.6048 15.8337L11.9585 14.8984L11.9585 14.8984L11.6048 15.8337ZM11.7115 15.8587L12.497 16.4776L13.5998 15.078L11.8306 14.8658L11.7115 15.8587ZM11.6461 15.9494L10.8071 15.4051L10.8071 15.4051L11.6461 15.9494ZM11.5313 16.3633L12.5313 16.3726L12.5313 16.3726L11.5313 16.3633ZM11.5333 16.4679L10.5341 16.5085L10.5873 17.8203L11.8379 17.4204L11.5333 16.4679ZM11.6321 16.4331L11.2648 15.503L11.2648 15.503L11.6321 16.4331ZM11.9401 16.1908L11.1118 15.6305L11.1118 15.6305L11.9401 16.1908ZM12 16.0914L12.8884 15.6324L12.0255 13.9624L11.1228 15.6112L12 16.0914ZM12.0576 16.1922L12.8988 15.6515L12.8988 15.6515L12.0576 16.1922ZM12.3675 16.4367L12.7052 15.4954L12.7052 15.4954L12.3675 16.4367ZM12.4667 16.4679L12.196 17.4306L13.4314 17.778L13.4664 16.4952L12.4667 16.4679ZM12.4681 16.3643L13.4681 16.3599L13.4681 16.3599L12.4681 16.3643ZM12.3585 15.941L13.1676 15.3534L13.1676 15.3534L12.3585 15.941ZM12.2885 15.8587L11.9902 14.9042L10.4373 15.3895L11.5715 16.5559L12.2885 15.8587ZM12.3907 15.8218L12.7819 16.7421L12.7819 16.7421L12.3907 15.8218ZM12.6966 15.5648L13.4971 16.1641L13.4971 16.1641L12.6966 15.5648ZM12.7552 15.4822L13.5829 16.0435L14.2227 15.0999L13.2038 14.5885L12.7552 15.4822ZM12.6634 15.4394L13.0499 14.5171L13.0499 14.5171L12.6634 15.4394ZM12.2821 15.433L11.9096 14.505L11.9096 14.505L12.2821 15.433ZM12.1783 15.4822L11.1823 15.3925L11.0159 17.2406L12.651 16.3634L12.1783 15.4822ZM12.1839 15.3672L13.1839 15.3663L13.1839 15.3663L12.1839 15.3672ZM12.0585 14.96L11.2131 15.4943L11.2131 15.4943L12.0585 14.96ZM12 14.873L12.8179 14.2976L12.0554 13.2137L11.2223 14.2444L12 14.873ZM11.9359 14.956L12.7446 15.5443L12.7446 15.5443L11.9359 14.956ZM11.8033 15.3692L10.8077 15.4626L10.8077 15.4626L11.8033 15.3692ZM11.8217 15.4822L11.4632 16.4157L13.1996 17.0826L12.7982 15.2664L11.8217 15.4822ZM11.7127 15.4458L11.4483 16.4103L11.4483 16.4103L11.7127 15.4458ZM11.3456 15.4509L11.081 14.4865L11.081 14.4865L11.3456 15.4509ZM11.2448 15.4822L10.7962 16.3759L11.17 16.5636L11.5661 16.4292L11.2448 15.4822ZM11.153 15.4394L10.7665 16.3617L10.7665 16.3617L11.153 15.4394ZM10.7717 15.433L10.3992 14.505L10.3992 14.505L10.7717 15.433ZM10.6679 15.4822L9.67192 15.3925L9.50546 17.2406L11.1406 16.3634L10.6679 15.4822ZM10.9649 15.4935L10.9299 16.4929L10.9299 16.4929L10.9649 15.4935ZM11.0925 15.5229L11.8836 16.1344L12.705 15.0719L11.4516 14.5896L11.0925 15.5229ZM10.7152 15.5703L11.1879 16.4515L11.1879 16.4515L10.7152 15.5703ZM10.5516 15.6581L9.55567 15.5683L9.38922 17.4164L11.0244 16.5393L10.5516 15.6581ZM10.5683 15.4732L11.5643 15.5629L10.5683 15.4732ZM10.5486 15.1875L11.5032 14.8896L11.5032 14.8896L10.5486 15.1875ZM10.4839 15.0468L11.3458 14.5397L10.5447 13.1783L9.65681 14.4848L10.4839 15.0468ZM10.4069 15.1966L9.45229 14.8989L9.45229 14.8989L10.4069 15.1966ZM10.409 15.4606L9.43254 15.6765L9.43254 15.6765L10.409 15.4606ZM10.4491 15.6423L10.0906 16.5758L11.827 17.2426L11.4255 15.4264L10.4491 15.6423ZM10.2755 15.5756L9.91696 16.5091L9.91696 16.5091L10.2755 15.5756ZM10.0243 15.5211L10.0387 16.521L10.0387 16.521L10.0243 15.5211ZM9.90068 15.5374L9.67537 14.5632L8.13706 14.9189L9.11618 16.1576L9.90068 15.5374ZM10.0436 15.6896L9.41939 16.4708L9.41939 16.4708L10.0436 15.6896ZM10.213 15.7594L10.3321 14.7666L10.213 15.7594ZM10.39 15.7807L11.1755 16.3995L12.2782 14.9999L10.509 14.7878L10.39 15.7807ZM10.2797 15.9206L9.49421 15.3017L9.49421 15.3017L10.2797 15.9206ZM10.1451 16.1628L11.1075 16.4345L11.1075 16.4345L10.1451 16.1628ZM10.1219 16.3246L9.12272 16.2843L9.05776 17.8951L10.5297 17.2376L10.1219 16.3246ZM10.2377 16.2563L9.61694 15.4724L9.61694 15.4724L10.2377 16.2563ZM10.4019 16.0434L11.279 16.5236L11.279 16.5236L10.4019 16.0434ZM10.4922 15.8785L11.3806 15.4195L10.5176 13.7495L9.615 15.3983L10.4922 15.8785ZM10.5784 16.0455L9.69004 16.5046L9.69004 16.5046L10.5784 16.0455ZM10.7429 16.2657L10.1287 17.0548L10.1287 17.0548L10.7429 16.2657ZM10.8573 16.3297L10.4791 17.2555L11.8915 17.8324L11.857 16.3071L10.8573 16.3297ZM10.8354 16.1425L9.86858 16.3979L9.86858 16.398L10.8354 16.1425ZM10.7064 15.9284L11.4233 15.2313L11.4233 15.2313L10.7064 15.9284ZM10.593 15.8118L10.2947 14.8573L8.74183 15.3426L9.87603 16.509L10.593 15.8118ZM10.7482 15.7633L10.45 14.8088L10.45 14.8088L10.7482 15.7633ZM10.9644 15.6577L10.3434 14.874L10.3434 14.874L10.9644 15.6577ZM12.4753 15.4935L12.4403 16.4929L12.4403 16.4929L12.4753 15.4935ZM12.6029 15.5229L13.394 16.1344L14.2154 15.0719L12.962 14.5896L12.6029 15.5229ZM12.2256 15.5703L12.6983 16.4515L12.6983 16.4515L12.2256 15.5703ZM12.062 15.6581L11.0661 15.5683L10.8996 17.4164L12.5348 16.5393L12.062 15.6581ZM12.0787 15.4732L13.0747 15.5629L13.0747 15.5629L12.0787 15.4732ZM12.059 15.1875L13.0136 14.8896L13.0136 14.8896L12.059 15.1875ZM11.9943 15.0468L12.8562 14.5397L12.055 13.1783L11.1672 14.4848L11.9943 15.0468ZM11.9173 15.1966L12.872 15.4944L12.872 15.4944L11.9173 15.1966ZM11.9194 15.4606L12.8958 15.2448L12.8958 15.2448L11.9194 15.4606ZM11.9595 15.6423L11.601 16.5758L13.3374 17.2426L12.9359 15.4264L11.9595 15.6423ZM11.7859 15.5756L11.4274 16.5091L11.4274 16.5091L11.7859 15.5756ZM11.5347 15.5211L11.549 16.521L11.549 16.521L11.5347 15.5211ZM11.4111 15.5374L11.1858 14.5632L9.64745 14.9189L10.6266 16.1576L11.4111 15.5374ZM11.554 15.6896L10.9298 16.4708L10.9298 16.4708L11.554 15.6896ZM11.7234 15.7594L11.8425 14.7666L11.8425 14.7666L11.7234 15.7594ZM11.9004 15.7807L12.6859 16.3995L13.7886 14.9999L12.0194 14.7878L11.9004 15.7807ZM11.7901 15.9206L12.5756 16.5395L12.5756 16.5395L11.7901 15.9206ZM11.6555 16.1628L12.6179 16.4345L12.6179 16.4345L11.6555 16.1628ZM11.6323 16.3246L10.6331 16.2843L10.5682 17.8951L12.0401 17.2376L11.6323 16.3246ZM11.7481 16.2563L11.1273 15.4724L11.1273 15.4724L11.7481 16.2563ZM11.9123 16.0434L11.0351 15.5632L11.0351 15.5632L11.9123 16.0434ZM12.0026 15.8785L12.891 15.4195L12.028 13.7495L11.1254 15.3983L12.0026 15.8785ZM12.0888 16.0455L12.9772 15.5865L12.9772 15.5865L12.0888 16.0455ZM12.2533 16.2657L11.6391 17.0548L11.6391 17.0548L12.2533 16.2657ZM12.3677 16.3297L11.9895 17.2555L13.4019 17.8324L13.3674 16.3071L12.3677 16.3297ZM12.3458 16.1425L11.379 16.3979L11.379 16.3979L12.3458 16.1425ZM12.2168 15.9284L12.9337 15.2313L12.9337 15.2313L12.2168 15.9284ZM12.1034 15.8118L11.8051 14.8573L10.2522 15.3426L11.3864 16.509L12.1034 15.8118ZM12.2586 15.7633L12.5569 16.7178L12.5569 16.7178L12.2586 15.7633ZM12.4748 15.6577L11.8538 14.874L11.8538 14.874L12.4748 15.6577ZM13.6943 15.3672L14.6943 15.3663L14.6943 15.3663L13.6943 15.3672ZM13.5689 14.96L12.7236 15.4943L12.7236 15.4943L13.5689 14.96ZM13.6887 15.4822L12.6927 15.3925L12.5263 17.2406L14.1614 16.3634L13.6887 15.4822ZM13.7925 15.433L14.1649 16.3611L14.1649 16.3611L13.7925 15.433ZM14.1738 15.4394L13.7873 16.3617L13.7873 16.3617L14.1738 15.4394ZM14.2656 15.4822L15.0933 16.0435L15.7331 15.0999L14.7143 14.5885L14.2656 15.4822ZM14.207 15.5648L13.4065 14.9654L13.4065 14.9654L14.207 15.5648ZM13.9011 15.8218L14.2923 16.7421L14.2923 16.7421L13.9011 15.8218ZM13.7989 15.8587L13.5006 14.9042L11.9478 15.3895L13.0819 16.5559L13.7989 15.8587ZM13.8689 15.941L14.6781 15.3534L14.678 15.3534L13.8689 15.941ZM13.9786 16.3643L14.9785 16.3599L14.9785 16.3599L13.9786 16.3643ZM13.9772 16.4679L13.7064 17.4306L14.9418 17.778L14.9768 16.4952L13.9772 16.4679ZM13.8779 16.4367L14.2156 15.4954L14.2156 15.4954L13.8779 16.4367ZM13.568 16.1922L14.4092 15.6515L14.4092 15.6515L13.568 16.1922ZM13.5104 16.0914L14.3988 15.6324L13.5359 13.9624L12.6333 15.6112L13.5104 16.0914ZM13.4505 16.1908L12.6222 15.6305L12.6222 15.6305L13.4505 16.1908ZM13.1425 16.4331L12.7752 15.503L12.7752 15.503L13.1425 16.4331ZM13.0437 16.4679L12.0445 16.5085L12.0977 17.8203L13.3483 17.4204L13.0437 16.4679ZM13.0418 16.3633L14.0417 16.3726L14.0417 16.3726L13.0418 16.3633ZM13.1565 15.9494L13.9954 16.4936L13.9954 16.4936L13.1565 15.9494ZM13.222 15.8587L14.0074 16.4776L15.1102 15.078L13.341 14.8658L13.222 15.8587ZM13.1152 15.8337L13.4689 14.8984L13.4689 14.8984L13.1152 15.8337ZM12.8177 15.5668L13.6125 14.96L13.6125 14.96L12.8177 15.5668ZM12.7552 15.4822L12.434 14.5352L11.1556 14.9689L11.9429 16.0654L12.7552 15.4822ZM12.856 15.4509L13.1206 16.4153L13.1206 16.4153L12.856 15.4509ZM13.2231 15.4458L13.4875 14.4814L13.4875 14.4814L13.2231 15.4458ZM13.3321 15.4822L12.9736 16.4157L14.71 17.0826L14.3086 15.2664L13.3321 15.4822ZM13.3137 15.3692L12.3181 15.4626L12.3181 15.4626L13.3137 15.3692ZM13.4463 14.956L14.255 15.5443L14.255 15.5443L13.4463 14.956ZM13.5104 14.873L14.3283 14.2976L13.5658 13.2137L12.7327 14.2444L13.5104 14.873ZM14.1133 15.5229L14.9045 16.1344L15.7258 15.0719L14.4724 14.5896L14.1133 15.5229ZM13.9857 15.4935L13.9507 16.4929L13.9507 16.4929L13.9857 15.4935ZM13.9852 15.6577L14.6063 16.4415L14.6063 16.4415L13.9852 15.6577ZM13.769 15.7633L14.0673 16.7178L14.0673 16.7178L13.769 15.7633ZM13.6138 15.8118L13.3155 14.8573L11.7626 15.3426L12.8968 16.509L13.6138 15.8118ZM13.7272 15.9284L14.4441 15.2313L14.4441 15.2313L13.7272 15.9284ZM13.8562 16.1425L12.8894 16.3979L12.8894 16.398L13.8562 16.1425ZM13.8781 16.3297L13.4999 17.2555L14.9124 17.8324L14.8778 16.3071L13.8781 16.3297ZM13.7637 16.2657L14.3779 15.4765L14.3779 15.4765L13.7637 16.2657ZM13.5993 16.0455L14.4877 15.5865L14.4877 15.5865L13.5993 16.0455ZM13.513 15.8785L14.4014 15.4195L13.5384 13.7495L12.6358 15.3983L13.513 15.8785ZM13.4227 16.0434L12.5455 15.5632L12.5455 15.5632L13.4227 16.0434ZM13.2585 16.2563L12.6377 15.4724L12.6377 15.4724L13.2585 16.2563ZM13.1427 16.3246L12.1435 16.2843L12.0786 17.8951L13.5505 17.2376L13.1427 16.3246ZM13.166 16.1628L14.1283 16.4345L14.1283 16.4345L13.166 16.1628ZM13.3005 15.9206L14.086 16.5395L14.086 16.5395L13.3005 15.9206ZM13.4108 15.7807L14.1963 16.3995L15.299 14.9999L13.5298 14.7878L13.4108 15.7807ZM13.2339 15.7594L13.3529 14.7666L13.3529 14.7666L13.2339 15.7594ZM13.0644 15.6896L13.6886 14.9083L13.6886 14.9083L13.0644 15.6896ZM12.9215 15.5374L12.6962 14.5632L11.1579 14.9189L12.137 16.1576L12.9215 15.5374ZM13.0451 15.5211L13.0595 16.521L13.0595 16.521L13.0451 15.5211ZM13.2963 15.5756L12.9378 16.5091L12.9378 16.5091L13.2963 15.5756ZM13.4699 15.6423L13.1114 16.5758L14.8478 17.2426L14.4464 15.4264L13.4699 15.6423ZM13.4298 15.4606L14.4062 15.2448L14.4062 15.2448L13.4298 15.4606ZM13.4277 15.1966L14.3824 15.4944L14.3824 15.4944L13.4277 15.1966ZM13.5047 15.0468L14.3666 14.5397L13.5655 13.1783L12.6776 14.4848L13.5047 15.0468ZM13.5694 15.1875L14.524 14.8896L14.524 14.8896L13.5694 15.1875ZM13.5891 15.4732L14.5851 15.5629L14.5851 15.5629L13.5891 15.4732ZM13.5725 15.6581L12.5765 15.5683L12.41 17.4164L14.0452 16.5393L13.5725 15.6581ZM13.736 15.5703L14.2087 16.4515L14.2087 16.4515L13.736 15.5703ZM9.70275 15.4943C9.71767 15.5179 9.70369 15.5004 9.69008 15.4577C9.68337 15.4366 9.67877 15.4158 9.6761 15.3972C9.67353 15.3794 9.67347 15.3686 9.67347 15.368L11.6735 15.3663C11.6732 14.9822 11.5601 14.6896 11.3934 14.4258L9.70275 15.4943ZM9.67171 15.4484C9.68683 15.4699 9.69652 15.4845 9.70275 15.4943L11.3934 14.4258C11.3646 14.3802 11.3353 14.3372 11.3075 14.2976L9.67171 15.4484ZM11.2342 15.5443C11.2409 15.5351 11.2513 15.5214 11.2673 15.5016L9.71191 14.2444C9.68088 14.2828 9.64864 14.3241 9.61689 14.3677L11.2342 15.5443ZM11.2885 15.2758C11.2901 15.2924 11.2914 15.3217 11.2876 15.3597C11.2836 15.3987 11.2752 15.4375 11.2632 15.4736C11.2403 15.5427 11.2137 15.5724 11.2342 15.5443L9.61689 14.3677C9.53193 14.4845 9.43175 14.6428 9.36517 14.8432C9.29436 15.0564 9.2787 15.2645 9.29729 15.4626L11.2885 15.2758ZM11.2878 15.2664C11.2858 15.2574 11.2872 15.2617 11.2885 15.2758L9.29729 15.4626C9.30521 15.547 9.31897 15.626 9.3349 15.6981L11.2878 15.2664ZM9.93792 16.4103C9.9337 16.4091 9.9378 16.41 9.95281 16.4157L10.6698 14.5487C10.607 14.5245 10.5391 14.5013 10.4667 14.4814L9.93792 16.4103ZM10.0998 16.4153C10.1131 16.4116 10.0872 16.42 10.04 16.421C9.98907 16.422 9.95113 16.4139 9.93792 16.4103L10.4667 14.4814C10.1355 14.3906 9.84795 14.4104 9.57059 14.4865L10.0998 16.4153ZM10.0557 16.4292C10.0791 16.4213 10.0927 16.4172 10.0998 16.4153L9.57059 14.4865C9.51444 14.502 9.46141 14.5189 9.41315 14.5352L10.0557 16.4292ZM10.5917 14.96C10.579 14.9433 10.5641 14.9233 10.5467 14.899L8.9221 16.0654C8.94856 16.1023 8.97522 16.1385 9.00208 16.1737L10.5917 14.96ZM10.4481 14.8984C10.4888 14.9138 10.5259 14.9327 10.5582 14.953C10.5895 14.9727 10.611 14.9906 10.6226 15.001C10.6336 15.0109 10.6363 15.0147 10.6299 15.0074C10.6234 15.0001 10.6111 14.9854 10.5917 14.96L9.00208 16.1737C9.14542 16.3614 9.37169 16.6295 9.74066 16.7691L10.4481 14.8984ZM10.3202 14.8658C10.3435 14.8686 10.3903 14.8765 10.4481 14.8984L9.74066 16.7691C9.86557 16.8163 9.98218 16.8396 10.0821 16.8516L10.3202 14.8658ZM10.9746 16.4936C10.9737 16.495 10.9767 16.4902 10.9866 16.4776L9.41566 15.2398C9.3759 15.2903 9.33552 15.3453 9.29674 15.4051L10.9746 16.4936ZM11.0209 16.3726C11.0212 16.3413 11.0238 16.3612 11.0123 16.4036C11.0066 16.4248 10.9991 16.4452 10.9907 16.4634C10.9826 16.4809 10.976 16.4914 10.9746 16.4936L9.29674 15.4051C9.08909 15.7252 9.02396 16.0348 9.021 16.3541L11.0209 16.3726ZM11.022 16.4274C11.021 16.4022 11.0208 16.3847 11.0209 16.3726L9.021 16.3541C9.0205 16.4073 9.02169 16.4592 9.02369 16.5085L11.022 16.4274ZM9.75438 15.503C9.74988 15.5048 9.73891 15.5089 9.71827 15.5155L10.3275 17.4204C10.3783 17.4042 10.4329 17.3853 10.4891 17.3632L9.75438 15.503ZM9.60136 15.6305C9.60693 15.6222 9.6333 15.5864 9.68189 15.5485C9.72825 15.5124 9.76263 15.4997 9.75438 15.503L10.4891 17.3632C10.7959 17.242 11.0514 17.0564 11.2579 16.7511L9.60136 15.6305ZM9.61245 15.6112C9.60366 15.6273 9.60006 15.6324 9.60136 15.6305L11.2579 16.7511C11.2993 16.69 11.3352 16.6293 11.3668 16.5716L9.61245 15.6112ZM11.3884 15.6515C11.3897 15.6534 11.3862 15.6482 11.378 15.6324L9.6012 16.5505C9.63174 16.6096 9.66631 16.6711 9.70598 16.7328L11.3884 15.6515ZM11.1948 15.4954C11.1925 15.4946 11.238 15.5107 11.2949 15.5548C11.3533 15.6001 11.3831 15.6432 11.3884 15.6515L9.70598 16.7328C9.91905 17.0644 10.1918 17.2604 10.5194 17.3779L11.1948 15.4954ZM11.2271 15.5053C11.2064 15.4995 11.197 15.4962 11.1948 15.4954L10.5194 17.3779C10.5781 17.399 10.6346 17.4162 10.6856 17.4306L11.2271 15.5053ZM9.95776 16.3686C9.95784 16.3873 9.95754 16.4106 9.95672 16.4407L11.956 16.4952C11.9572 16.4517 11.9579 16.4061 11.9577 16.3599L9.95776 16.3686ZM10.039 16.5286C10.0247 16.509 10.0084 16.4827 9.99359 16.4506C9.97875 16.4184 9.96915 16.3887 9.96328 16.3646C9.95305 16.3226 9.9575 16.3098 9.95776 16.3686L11.9577 16.3599C11.9565 16.0872 11.9223 15.7184 11.6572 15.3534L10.039 16.5286ZM10.0611 16.5559C10.0604 16.5551 10.0516 16.5459 10.039 16.5286L11.6572 15.3534C11.605 15.2815 11.5498 15.2179 11.495 15.1616L10.0611 16.5559ZM10.489 14.9015C10.496 14.8986 10.4948 14.8996 10.4798 14.9042L11.0763 16.8132C11.1354 16.7947 11.2017 16.7718 11.2715 16.7421L10.489 14.9015ZM10.3857 14.9654C10.3638 14.9947 10.369 14.9826 10.398 14.9584C10.413 14.9459 10.4303 14.9335 10.4489 14.9223C10.4672 14.9114 10.4816 14.9047 10.489 14.9015L11.2715 16.7421C11.5884 16.6074 11.8046 16.4073 11.9867 16.1641L10.3857 14.9654ZM10.4172 14.921C10.4038 14.9407 10.3935 14.9551 10.3857 14.9654L11.9867 16.1641C12.0166 16.1242 12.0451 16.0837 12.0725 16.0435L10.4172 14.921ZM12.1021 14.96C12.0894 14.9433 12.0745 14.9233 12.0571 14.899L10.4325 16.0654C10.459 16.1023 10.4856 16.1385 10.5125 16.1737L12.1021 14.96ZM11.9585 14.8984C11.9992 14.9138 12.0363 14.9327 12.0686 14.953C12.0999 14.9727 12.1214 14.9906 12.133 15.001C12.144 15.0109 12.1467 15.0147 12.1403 15.0074C12.1338 15.0001 12.1215 14.9854 12.1021 14.96L10.5125 16.1737C10.6558 16.3614 10.8821 16.6295 11.2511 16.7691L11.9585 14.8984ZM11.8306 14.8658C11.8539 14.8686 11.9007 14.8765 11.9585 14.8984L11.2511 16.7691C11.376 16.8163 11.4926 16.8396 11.5925 16.8516L11.8306 14.8658ZM12.485 16.4936C12.4841 16.495 12.4871 16.4902 12.497 16.4776L10.9261 15.2398C10.8863 15.2903 10.8459 15.3453 10.8071 15.4051L12.485 16.4936ZM12.5313 16.3726C12.5316 16.3413 12.5342 16.3612 12.5227 16.4036C12.517 16.4248 12.5095 16.4452 12.5011 16.4634C12.493 16.4809 12.4864 16.4914 12.485 16.4936L10.8071 15.4051C10.5995 15.7252 10.5344 16.0348 10.5314 16.3541L12.5313 16.3726ZM12.5324 16.4274C12.5314 16.4022 12.5312 16.3847 12.5313 16.3726L10.5314 16.3541C10.5309 16.4073 10.5321 16.4592 10.5341 16.5085L12.5324 16.4274ZM11.2648 15.503C11.2603 15.5048 11.2493 15.5089 11.2287 15.5155L11.8379 17.4204C11.8887 17.4042 11.9433 17.3853 11.9995 17.3632L11.2648 15.503ZM11.1118 15.6305C11.1173 15.6222 11.1437 15.5864 11.1923 15.5485C11.2386 15.5124 11.273 15.4997 11.2648 15.503L11.9995 17.3632C12.3063 17.242 12.5618 17.0564 12.7683 16.7511L11.1118 15.6305ZM11.1228 15.6112C11.1141 15.6273 11.1105 15.6324 11.1118 15.6305L12.7683 16.7511C12.8096 16.69 12.8456 16.6293 12.8772 16.5716L11.1228 15.6112ZM12.8988 15.6515C12.9001 15.6534 12.8966 15.6482 12.8884 15.6324L11.1116 16.5505C11.1421 16.6096 11.1767 16.6711 11.2164 16.7329L12.8988 15.6515ZM12.7052 15.4954C12.7029 15.4946 12.7484 15.5107 12.8053 15.5548C12.8637 15.6001 12.8935 15.6432 12.8988 15.6515L11.2164 16.7328C11.4294 17.0644 11.7022 17.2604 12.0298 17.3779L12.7052 15.4954ZM12.7375 15.5053C12.7168 15.4995 12.7074 15.4962 12.7052 15.4954L12.0298 17.3779C12.0885 17.399 12.145 17.4162 12.196 17.4306L12.7375 15.5053ZM11.4682 16.3686C11.4682 16.3873 11.4679 16.4106 11.4671 16.4407L13.4664 16.4952C13.4676 16.4517 13.4683 16.4061 13.4681 16.3599L11.4682 16.3686ZM11.5494 16.5286C11.5351 16.509 11.5188 16.4827 11.504 16.4506C11.4891 16.4184 11.4795 16.3887 11.4737 16.3646C11.4634 16.3226 11.4679 16.3098 11.4682 16.3686L13.4681 16.3599C13.4669 16.0872 13.4327 15.7184 13.1676 15.3534L11.5494 16.5286ZM11.5715 16.5559C11.5708 16.5551 11.562 16.5459 11.5494 16.5286L13.1676 15.3534C13.1154 15.2815 13.0602 15.2179 13.0054 15.1616L11.5715 16.5559ZM11.9994 14.9015C12.0064 14.8986 12.0052 14.8996 11.9902 14.9042L12.5867 16.8132C12.6458 16.7947 12.7121 16.7718 12.7819 16.7421L11.9994 14.9015ZM11.8961 14.9654C11.8742 14.9947 11.8794 14.9826 11.9084 14.9584C11.9234 14.9459 11.9407 14.9335 11.9593 14.9223C11.9775 14.9114 11.992 14.9047 11.9994 14.9015L12.7819 16.7421C13.0988 16.6074 13.315 16.4073 13.4971 16.1641L11.8961 14.9654ZM11.9276 14.921C11.9142 14.9407 11.9039 14.9551 11.8961 14.9654L13.4971 16.1641C13.527 16.1242 13.5555 16.0837 13.5829 16.0435L11.9276 14.921ZM12.2768 16.3617C12.2768 16.3616 12.279 16.3626 12.2842 16.365C12.2894 16.3675 12.2966 16.3709 12.3066 16.3759L13.2038 14.5885C13.1596 14.5663 13.1073 14.5412 13.0499 14.5171L12.2768 16.3617ZM12.6545 16.3611C12.6288 16.3714 12.5519 16.3967 12.4442 16.393C12.3946 16.3913 12.3529 16.3838 12.3221 16.376C12.3073 16.3722 12.2959 16.3686 12.2884 16.366C12.281 16.3634 12.277 16.3617 12.2768 16.3617L13.0499 14.5171C12.9191 14.4623 12.7364 14.4019 12.5129 14.3942C12.2839 14.3863 12.0817 14.4359 11.9096 14.505L12.6545 16.3611ZM12.651 16.3634C12.6629 16.3571 12.6634 16.3575 12.6545 16.3611L11.9096 14.505C11.8362 14.5344 11.768 14.5675 11.7056 14.601L12.651 16.3634ZM11.1839 15.368C11.1839 15.3679 11.1839 15.3753 11.1823 15.3925L13.1743 15.5719C13.1802 15.5064 13.1839 15.4376 13.1839 15.3663L11.1839 15.368ZM11.2131 15.4943C11.2281 15.5179 11.2141 15.5004 11.2005 15.4577C11.1938 15.4366 11.1892 15.4158 11.1865 15.3972C11.1839 15.3794 11.1839 15.3686 11.1839 15.368L13.1839 15.3663C13.1836 14.9822 13.0705 14.6896 12.9038 14.4258L11.2131 15.4943ZM11.1821 15.4484C11.1972 15.4699 11.2069 15.4845 11.2131 15.4943L12.9038 14.4258C12.875 14.3802 12.8457 14.3372 12.8179 14.2976L11.1821 15.4484ZM12.7446 15.5443C12.7513 15.5351 12.7617 15.5214 12.7777 15.5016L11.2223 14.2444C11.1913 14.2827 11.159 14.3241 11.1273 14.3677L12.7446 15.5443ZM12.7989 15.2758C12.8005 15.2924 12.8018 15.3217 12.798 15.3597C12.794 15.3987 12.7856 15.4375 12.7736 15.4736C12.7507 15.5427 12.7241 15.5724 12.7446 15.5443L11.1273 14.3677C11.0423 14.4845 10.9421 14.6428 10.8756 14.8432C10.8048 15.0564 10.7891 15.2645 10.8077 15.4626L12.7989 15.2758ZM12.7982 15.2664C12.7962 15.2574 12.7976 15.2617 12.7989 15.2758L10.8077 15.4626C10.8156 15.547 10.8294 15.626 10.8453 15.6981L12.7982 15.2664ZM11.4483 16.4103C11.4441 16.4091 11.4482 16.41 11.4632 16.4157L12.1802 14.5487C12.1173 14.5245 12.0495 14.5013 11.9771 14.4814L11.4483 16.4103ZM11.6102 16.4153C11.6235 16.4116 11.5976 16.42 11.5504 16.421C11.4995 16.422 11.4615 16.4139 11.4483 16.4103L11.9771 14.4814C11.6459 14.3906 11.3584 14.4104 11.081 14.4865L11.6102 16.4153ZM11.5661 16.4292C11.5895 16.4213 11.6031 16.4172 11.6102 16.4153L11.081 14.4865C11.0248 14.502 10.9718 14.5189 10.9236 14.5352L11.5661 16.4292ZM10.7665 16.3617C10.7664 16.3616 10.7686 16.3626 10.7738 16.365C10.779 16.3675 10.7862 16.3709 10.7962 16.3759L11.6934 14.5885C11.6492 14.5663 11.5969 14.5412 11.5395 14.5171L10.7665 16.3617ZM11.1441 16.3611C11.1184 16.3714 11.0415 16.3967 10.9338 16.393C10.8842 16.3913 10.8425 16.3838 10.8117 16.376C10.7969 16.3722 10.7855 16.3686 10.778 16.366C10.7706 16.3634 10.7666 16.3617 10.7665 16.3617L11.5395 14.5171C11.4087 14.4623 11.226 14.4019 11.0025 14.3942C10.7735 14.3863 10.5713 14.4359 10.3992 14.505L11.1441 16.3611ZM11.1406 16.3634C11.1525 16.3571 11.153 16.3575 11.1441 16.3611L10.3992 14.505C10.3258 14.5344 10.2576 14.5675 10.1952 14.601L11.1406 16.3634ZM9.67347 15.368C9.67347 15.3679 9.67347 15.3753 9.67192 15.3925L11.6639 15.5719C11.6698 15.5064 11.6735 15.4376 11.6735 15.3663L9.67347 15.368ZM10.9299 16.4929C10.8265 16.4893 10.7543 16.4642 10.7333 16.4561L11.4516 14.5896C11.3338 14.5442 11.1815 14.5005 10.9998 14.4942L10.9299 16.4929ZM11.1879 16.4515C11.2048 16.4425 11.186 16.4545 11.1408 16.4678C11.0884 16.4831 11.0155 16.4959 10.9299 16.4929L10.9998 14.4942C10.6902 14.4833 10.4354 14.5856 10.2424 14.6891L11.1879 16.4515ZM11.0244 16.5393L11.1879 16.4515L10.2424 14.6891L10.0789 14.7768L11.0244 16.5393ZM9.57232 15.3835L9.55567 15.5683L11.5476 15.7478L11.5643 15.5629L9.57232 15.3835ZM9.59396 15.4853C9.5817 15.4461 9.57605 15.4104 9.57418 15.3847C9.57259 15.3629 9.57453 15.359 9.57232 15.3835L11.5643 15.5629C11.5829 15.3563 11.5783 15.1304 11.5032 14.8896L9.59396 15.4853ZM9.62205 15.554C9.62356 15.5566 9.60811 15.5307 9.59396 15.4853L11.5032 14.8896C11.4607 14.7534 11.4036 14.6379 11.3458 14.5397L9.62205 15.554ZM11.3616 15.4944C11.3375 15.5715 11.3076 15.6139 11.311 15.6089L9.65681 14.4848C9.58398 14.5919 9.50521 14.7292 9.45229 14.8989L11.3616 15.4944ZM11.3854 15.2448C11.3831 15.2346 11.39 15.2608 11.3901 15.3103C11.3902 15.3664 11.3815 15.4304 11.3616 15.4944L9.45229 14.8989C9.36185 15.1889 9.38343 15.4543 9.43254 15.6765L11.3854 15.2448ZM11.4255 15.4264L11.3854 15.2448L9.43254 15.6765L9.47269 15.8581L11.4255 15.4264ZM9.91696 16.5091L10.0906 16.5758L10.8076 14.7087L10.634 14.642L9.91696 16.5091ZM10.0387 16.521C9.99464 16.5216 9.95632 16.5167 9.92858 16.5108C9.90469 16.5057 9.8982 16.5019 9.91696 16.5091L10.634 14.642C10.4563 14.5738 10.2502 14.5178 10.01 14.5212L10.0387 16.521ZM10.126 16.5117C10.117 16.5138 10.0849 16.5203 10.0387 16.521L10.01 14.5212C9.8865 14.523 9.77498 14.5401 9.67537 14.5632L10.126 16.5117ZM10.6678 14.9083C10.6918 14.9275 10.7048 14.9412 10.7061 14.9426C10.7069 14.9435 10.7056 14.9421 10.7019 14.9378C10.6982 14.9335 10.6927 14.9268 10.6852 14.9173L9.11618 16.1576C9.1943 16.2564 9.29368 16.3704 9.41939 16.4708L10.6678 14.9083ZM10.3321 14.7666C10.3608 14.77 10.4226 14.7801 10.4979 14.8105C10.575 14.8415 10.6323 14.88 10.6678 14.9083L9.41939 16.4708C9.63445 16.6427 9.86288 16.7246 10.094 16.7523L10.3321 14.7666ZM10.509 14.7878L10.3321 14.7666L10.094 16.7523L10.2709 16.7735L10.509 14.7878ZM11.0652 16.5395L11.1755 16.3995L9.60449 15.1618L9.49421 15.3017L11.0652 16.5395ZM11.1075 16.4345C11.0964 16.4739 11.0815 16.5077 11.068 16.532C11.0566 16.5527 11.0515 16.5569 11.0652 16.5395L9.49421 15.3017C9.37045 15.4588 9.25144 15.6478 9.18275 15.8912L11.1075 16.4345ZM11.1211 16.3649C11.1214 16.3584 11.1207 16.3878 11.1075 16.4345L9.18275 15.8912C9.14292 16.0323 9.12754 16.1649 9.12272 16.2843L11.1211 16.3649ZM9.61694 15.4724C9.66213 15.4366 9.70008 15.4178 9.7141 15.4115L10.5297 17.2376C10.6367 17.1899 10.7487 17.1273 10.8585 17.0403L9.61694 15.4724ZM9.52473 15.5632C9.51273 15.5851 9.51427 15.5791 9.52941 15.5596C9.54733 15.5365 9.57653 15.5044 9.61694 15.4724L10.8585 17.0403C11.0603 16.8806 11.187 16.6918 11.279 16.5236L9.52473 15.5632ZM9.615 15.3983L9.52473 15.5632L11.279 16.5236L11.3693 16.3587L9.615 15.3983ZM11.4668 15.5865L11.3806 15.4195L9.60375 16.3376L9.69004 16.5046L11.4668 15.5865ZM11.3571 15.4765C11.4052 15.5139 11.439 15.5517 11.4593 15.5786C11.4766 15.6015 11.4787 15.6094 11.4668 15.5865L9.69004 16.5046C9.78291 16.6843 9.914 16.8877 10.1287 17.0548L11.3571 15.4765ZM11.2354 15.404C11.2555 15.4122 11.3028 15.4342 11.3571 15.4765L10.1287 17.0548C10.2469 17.1469 10.3671 17.2097 10.4791 17.2555L11.2354 15.404ZM9.86858 16.398C9.86112 16.3697 9.8583 16.3494 9.85736 16.3412C9.85652 16.3339 9.85716 16.3359 9.85753 16.3524L11.857 16.3071C11.8544 16.1915 11.844 16.0451 11.8022 15.887L9.86858 16.398ZM9.98945 16.6256C9.98437 16.6204 9.95927 16.5937 9.93125 16.5466C9.90115 16.496 9.88069 16.4438 9.86858 16.3979L11.8022 15.887C11.7311 15.618 11.5941 15.407 11.4233 15.2313L9.98945 16.6256ZM9.87603 16.509L9.98945 16.6256L11.4233 15.2313L11.3099 15.1147L9.87603 16.509ZM10.45 14.8088L10.2947 14.8573L10.8912 16.7663L11.0465 16.7178L10.45 14.8088ZM10.3434 14.874C10.3742 14.8495 10.4064 14.8301 10.4341 14.8167C10.4577 14.8053 10.4678 14.8032 10.45 14.8088L11.0465 16.7178C11.2073 16.6675 11.3968 16.591 11.5855 16.4415L10.3434 14.874ZM10.3013 14.9113C10.2879 14.9286 10.3027 14.9062 10.3434 14.874L11.5855 16.4415C11.7076 16.3448 11.8037 16.2379 11.8836 16.1344L10.3013 14.9113ZM12.4403 16.4929C12.3369 16.4893 12.2647 16.4642 12.2437 16.4561L12.962 14.5896C12.8442 14.5442 12.6919 14.5005 12.5102 14.4942L12.4403 16.4929ZM12.6983 16.4515C12.7152 16.4425 12.6964 16.4545 12.6512 16.4678C12.5988 16.4831 12.5259 16.4959 12.4403 16.4929L12.5102 14.4942C12.2006 14.4833 11.9458 14.5856 11.7528 14.6891L12.6983 16.4515ZM12.5348 16.5393L12.6983 16.4515L11.7528 14.6891L11.5893 14.7768L12.5348 16.5393ZM11.0827 15.3835L11.0661 15.5683L13.058 15.7478L13.0747 15.5629L11.0827 15.3835ZM11.1044 15.4853C11.0921 15.4461 11.0865 15.4104 11.0846 15.3847C11.083 15.3629 11.0849 15.359 11.0827 15.3835L13.0747 15.5629C13.0933 15.3563 13.0887 15.1304 13.0136 14.8896L11.1044 15.4853ZM11.1324 15.554C11.134 15.5566 11.1185 15.5307 11.1044 15.4854L13.0136 14.8896C12.9711 14.7534 12.914 14.6379 12.8562 14.5397L11.1324 15.554ZM12.872 15.4944C12.8479 15.5715 12.818 15.6139 12.8214 15.6089L11.1672 14.4848C11.0944 14.5919 11.0156 14.7292 10.9627 14.8989L12.872 15.4944ZM12.8958 15.2448C12.8935 15.2346 12.9004 15.2608 12.9005 15.3103C12.9006 15.3664 12.8919 15.4304 12.872 15.4944L10.9627 14.8989C10.8722 15.1889 10.8938 15.4543 10.9429 15.6765L12.8958 15.2448ZM12.9359 15.4264L12.8958 15.2448L10.9429 15.6765L10.9831 15.8581L12.9359 15.4264ZM11.4274 16.5091L11.601 16.5758L12.318 14.7087L12.1444 14.642L11.4274 16.5091ZM11.549 16.521C11.505 16.5216 11.4667 16.5167 11.439 16.5108C11.4151 16.5057 11.4086 16.5019 11.4274 16.5091L12.1444 14.642C11.9666 14.5738 11.7606 14.5178 11.5203 14.5212L11.549 16.521ZM11.6364 16.5117C11.6274 16.5138 11.5953 16.5203 11.549 16.521L11.5203 14.5212C11.3969 14.523 11.2854 14.5401 11.1858 14.5632L11.6364 16.5117ZM12.1782 14.9083C12.2022 14.9275 12.2152 14.9412 12.2164 14.9426C12.2173 14.9435 12.216 14.9421 12.2123 14.9378C12.2086 14.9335 12.2031 14.9268 12.1956 14.9173L10.6266 16.1576C10.7047 16.2564 10.8041 16.3704 10.9298 16.4708L12.1782 14.9083ZM11.8425 14.7666C11.8712 14.77 11.933 14.7801 12.0083 14.8105C12.0854 14.8415 12.1427 14.88 12.1782 14.9083L10.9298 16.4708C11.1448 16.6427 11.3733 16.7246 11.6044 16.7523L11.8425 14.7666ZM12.0194 14.7878L11.8425 14.7666L11.6044 16.7523L11.7813 16.7735L12.0194 14.7878ZM12.5756 16.5395L12.6859 16.3995L11.1149 15.1618L11.0046 15.3017L12.5756 16.5395ZM12.6179 16.4345C12.6068 16.4739 12.5919 16.5077 12.5784 16.532C12.567 16.5527 12.5619 16.5569 12.5756 16.5395L11.0046 15.3017C10.8809 15.4588 10.7618 15.6478 10.6931 15.8912L12.6179 16.4345ZM12.6315 16.3649C12.6318 16.3584 12.6311 16.3878 12.6179 16.4345L10.6931 15.8912C10.6533 16.0323 10.6379 16.1649 10.6331 16.2843L12.6315 16.3649ZM11.1273 15.4724C11.1725 15.4366 11.2105 15.4178 11.2245 15.4115L12.0401 17.2376C12.1471 17.1899 12.2591 17.1273 12.3689 17.0403L11.1273 15.4724ZM11.0351 15.5632C11.0231 15.5851 11.0247 15.5791 11.0398 15.5596C11.0577 15.5365 11.0869 15.5044 11.1273 15.4724L12.3689 17.0403C12.5706 16.8806 12.6974 16.6918 12.7894 16.5236L11.0351 15.5632ZM11.1254 15.3983L11.0351 15.5632L12.7894 16.5236L12.8797 16.3587L11.1254 15.3983ZM12.9772 15.5865L12.891 15.4195L11.1142 16.3376L11.2004 16.5046L12.9772 15.5865ZM12.8675 15.4765C12.9156 15.5139 12.9494 15.5517 12.9697 15.5786C12.987 15.6015 12.9891 15.6094 12.9772 15.5865L11.2004 16.5046C11.2933 16.6843 11.4244 16.8877 11.6391 17.0548L12.8675 15.4765ZM12.7458 15.404C12.7659 15.4122 12.8132 15.4342 12.8675 15.4765L11.6391 17.0548C11.7573 17.1469 11.8775 17.2097 11.9895 17.2555L12.7458 15.404ZM11.379 16.3979C11.3715 16.3697 11.3687 16.3494 11.3678 16.3412C11.3669 16.3339 11.3676 16.3359 11.3679 16.3524L13.3674 16.3071C13.3648 16.1915 13.3544 16.0451 13.3126 15.887L11.379 16.3979ZM11.4998 16.6256C11.4948 16.6204 11.4697 16.5937 11.4416 16.5466C11.4115 16.496 11.3911 16.4438 11.379 16.3979L13.3126 15.887C13.2415 15.618 13.1045 15.407 12.9337 15.2313L11.4998 16.6256ZM11.3864 16.509L11.4998 16.6256L12.9337 15.2313L12.8203 15.1147L11.3864 16.509ZM11.9604 14.8088L11.8051 14.8573L12.4016 16.7663L12.5569 16.7178L11.9604 14.8088ZM11.8538 14.874C11.8846 14.8495 11.9167 14.8301 11.9445 14.8167C11.968 14.8053 11.9782 14.8032 11.9604 14.8088L12.5569 16.7178C12.7177 16.6675 12.9072 16.591 13.0959 16.4415L11.8538 14.874ZM11.8117 14.9113C11.7983 14.9286 11.8131 14.9062 11.8538 14.874L13.0959 16.4415C13.218 16.3448 13.3141 16.2379 13.394 16.1344L11.8117 14.9113ZM14.6943 15.3663C14.694 14.9822 14.5809 14.6896 14.4142 14.4258L12.7236 15.4943C12.7385 15.5179 12.7245 15.5004 12.7109 15.4577C12.7042 15.4366 12.6996 15.4158 12.6969 15.3972C12.6943 15.3794 12.6943 15.3686 12.6943 15.368L14.6943 15.3663ZM14.6847 15.5719C14.6906 15.5064 14.6943 15.4376 14.6943 15.3663L12.6943 15.368C12.6943 15.3679 12.6943 15.3753 12.6927 15.3925L14.6847 15.5719ZM13.42 14.505C13.3466 14.5344 13.2784 14.5675 13.216 14.601L14.1614 16.3634C14.1733 16.3571 14.1738 16.3575 14.1649 16.3611L13.42 14.505ZM14.5603 14.5171C14.4296 14.4623 14.2468 14.4019 14.0233 14.3942C13.7943 14.3863 13.5921 14.4359 13.42 14.505L14.1649 16.3611C14.1393 16.3714 14.0623 16.3967 13.9546 16.393C13.905 16.3913 13.8633 16.3838 13.8325 16.376C13.8177 16.3722 13.8063 16.3686 13.7989 16.366C13.7914 16.3634 13.7874 16.3617 13.7873 16.3617L14.5603 14.5171ZM14.7143 14.5885C14.67 14.5663 14.6177 14.5412 14.5603 14.5171L13.7873 16.3617C13.7872 16.3616 13.7894 16.3626 13.7946 16.365C13.7998 16.3675 13.8071 16.3709 13.817 16.3759L14.7143 14.5885ZM15.0075 16.1641C15.0374 16.1242 15.066 16.0837 15.0933 16.0435L13.438 14.921C13.4246 14.9407 13.4143 14.9551 13.4065 14.9654L15.0075 16.1641ZM14.2923 16.7421C14.6092 16.6074 14.8254 16.4073 15.0075 16.1641L13.4065 14.9654C13.3846 14.9947 13.3898 14.9826 13.4188 14.9584C13.4338 14.9459 13.4511 14.9335 13.4697 14.9223C13.488 14.9114 13.5024 14.9047 13.5098 14.9015L14.2923 16.7421ZM14.0971 16.8132C14.1562 16.7947 14.2225 16.7718 14.2923 16.7421L13.5098 14.9015C13.5168 14.8986 13.5156 14.8996 13.5006 14.9042L14.0971 16.8132ZM14.678 15.3534C14.6258 15.2815 14.5706 15.2179 14.5158 15.1616L13.0819 16.5559C13.0812 16.5551 13.0724 16.5459 13.0598 16.5286L14.678 15.3534ZM14.9785 16.3599C14.9774 16.0872 14.9431 15.7184 14.6781 15.3534L13.0598 16.5286C13.0455 16.509 13.0292 16.4827 13.0144 16.4506C12.9996 16.4184 12.99 16.3887 12.9841 16.3646C12.9739 16.3226 12.9783 16.3098 12.9786 16.3686L14.9785 16.3599ZM14.9768 16.4952C14.978 16.4517 14.9787 16.4061 14.9785 16.3599L12.9786 16.3686C12.9786 16.3873 12.9783 16.4106 12.9775 16.4407L14.9768 16.4952ZM13.5402 17.3779C13.5989 17.399 13.6554 17.4162 13.7064 17.4306L14.2479 15.5053C14.2272 15.4995 14.2178 15.4962 14.2156 15.4954L13.5402 17.3779ZM12.7268 16.7328C12.9399 17.0644 13.2126 17.2604 13.5402 17.3779L14.2156 15.4954C14.2133 15.4946 14.2588 15.5107 14.3157 15.5548C14.3741 15.6001 14.4039 15.6432 14.4092 15.6515L12.7268 16.7328ZM12.622 16.5505C12.6525 16.6096 12.6871 16.6711 12.7268 16.7329L14.4092 15.6515C14.4105 15.6534 14.407 15.6482 14.3988 15.6324L12.622 16.5505ZM14.2788 16.7511C14.3201 16.69 14.356 16.6293 14.3876 16.5716L12.6333 15.6112C12.6245 15.6273 12.6209 15.6324 12.6222 15.6305L14.2788 16.7511ZM13.5099 17.3632C13.8167 17.242 14.0722 17.0564 14.2788 16.7511L12.6222 15.6305C12.6277 15.6222 12.6541 15.5864 12.7027 15.5485C12.7491 15.5124 12.7834 15.4997 12.7752 15.503L13.5099 17.3632ZM13.3483 17.4204C13.3991 17.4042 13.4537 17.3853 13.5099 17.3632L12.7752 15.503C12.7707 15.5048 12.7597 15.5089 12.7391 15.5155L13.3483 17.4204ZM12.0418 16.3541C12.0413 16.4073 12.0425 16.4592 12.0445 16.5085L14.0429 16.4274C14.0418 16.4022 14.0416 16.3847 14.0417 16.3726L12.0418 16.3541ZM12.3175 15.4051C12.1099 15.7252 12.0448 16.0348 12.0418 16.3541L14.0417 16.3726C14.042 16.3413 14.0446 16.3612 14.0331 16.4036C14.0274 16.4248 14.0199 16.4452 14.0115 16.4634C14.0034 16.4809 13.9968 16.4914 13.9954 16.4936L12.3175 15.4051ZM12.4365 15.2398C12.3967 15.2903 12.3563 15.3453 12.3175 15.4051L13.9954 16.4936C13.9945 16.495 13.9975 16.4902 14.0074 16.4776L12.4365 15.2398ZM12.7615 16.7691C12.8864 16.8163 13.003 16.8396 13.1029 16.8516L13.341 14.8658C13.3643 14.8686 13.4111 14.8765 13.4689 14.8984L12.7615 16.7691ZM12.0229 16.1737C12.1662 16.3614 12.3925 16.6295 12.7615 16.7691L13.4689 14.8984C13.5096 14.9138 13.5467 14.9327 13.579 14.953C13.6103 14.9727 13.6318 14.9906 13.6434 15.001C13.6544 15.0109 13.6571 15.0147 13.6507 15.0074C13.6442 15.0001 13.6319 14.9854 13.6125 14.96L12.0229 16.1737ZM11.9429 16.0654C11.9694 16.1023 11.996 16.1385 12.0229 16.1737L13.6125 14.96C13.5998 14.9433 13.5849 14.9233 13.5675 14.899L11.9429 16.0654ZM12.5914 14.4865C12.5352 14.502 12.4822 14.5189 12.434 14.5352L13.0765 16.4292C13.0999 16.4213 13.1135 16.4172 13.1206 16.4153L12.5914 14.4865ZM13.4875 14.4814C13.1563 14.3906 12.8688 14.4104 12.5914 14.4865L13.1206 16.4153C13.1339 16.4116 13.108 16.42 13.0608 16.421C13.0099 16.422 12.9719 16.4139 12.9587 16.4103L13.4875 14.4814ZM13.6906 14.5487C13.6278 14.5245 13.5599 14.5013 13.4875 14.4814L12.9587 16.4103C12.9545 16.4091 12.9586 16.41 12.9736 16.4157L13.6906 14.5487ZM12.3181 15.4626C12.326 15.547 12.3398 15.626 12.3557 15.6981L14.3086 15.2664C14.3066 15.2574 14.308 15.2617 14.3093 15.2758L12.3181 15.4626ZM12.6377 14.3677C12.5527 14.4845 12.4526 14.6428 12.386 14.8432C12.3152 15.0564 12.2995 15.2645 12.3181 15.4626L14.3093 15.2758C14.3109 15.2924 14.3122 15.3217 14.3084 15.3597C14.3044 15.3987 14.296 15.4375 14.284 15.4736C14.2611 15.5427 14.2345 15.5724 14.255 15.5443L12.6377 14.3677ZM12.7327 14.2444C12.7017 14.2827 12.6694 14.3241 12.6377 14.3677L14.255 15.5443C14.2617 15.5351 14.2721 15.5214 14.2881 15.5016L12.7327 14.2444ZM14.4142 14.4258C14.3854 14.3802 14.3561 14.3372 14.3283 14.2976L12.6925 15.4484C12.7076 15.4699 12.7173 15.4845 12.7236 15.4943L14.4142 14.4258ZM14.4724 14.5896C14.3546 14.5442 14.2023 14.5005 14.0206 14.4942L13.9507 16.4929C13.8473 16.4893 13.7751 16.4642 13.7541 16.4561L14.4724 14.5896ZM14.6063 16.4415C14.7284 16.3448 14.8245 16.2379 14.9045 16.1344L13.3221 14.9113C13.3087 14.9286 13.3235 14.9062 13.3642 14.874L14.6063 16.4415ZM14.0673 16.7178C14.2281 16.6675 14.4176 16.591 14.6063 16.4415L13.3642 14.874C13.395 14.8495 13.4272 14.8301 13.4549 14.8167C13.4785 14.8053 13.4886 14.8032 13.4708 14.8088L14.0673 16.7178ZM13.912 16.7663L14.0673 16.7178L13.4708 14.8088L13.3155 14.8573L13.912 16.7663ZM14.4441 15.2313L14.3307 15.1147L12.8968 16.509L13.0103 16.6256L14.4441 15.2313ZM14.823 15.887C14.7519 15.618 14.6149 15.407 14.4441 15.2313L13.0103 16.6256C13.0052 16.6204 12.9801 16.5937 12.9521 16.5466C12.922 16.496 12.9015 16.4438 12.8894 16.3979L14.823 15.887ZM14.8778 16.3071C14.8752 16.1915 14.8648 16.0451 14.823 15.887L12.8894 16.398C12.8819 16.3697 12.8791 16.3494 12.8782 16.3412C12.8773 16.3339 12.878 16.3359 12.8783 16.3524L14.8778 16.3071ZM13.1495 17.0548C13.2677 17.1469 13.3879 17.2097 13.4999 17.2555L14.2562 15.404C14.2763 15.4122 14.3236 15.4342 14.3779 15.4765L13.1495 17.0548ZM12.7109 16.5046C12.8037 16.6843 12.9348 16.8877 13.1495 17.0548L14.3779 15.4765C14.426 15.5139 14.4598 15.5517 14.4801 15.5786C14.4974 15.6015 14.4995 15.6094 14.4877 15.5865L12.7109 16.5046ZM12.6246 16.3376L12.7109 16.5046L14.4877 15.5865L14.4014 15.4195L12.6246 16.3376ZM14.2999 16.5236L14.3901 16.3587L12.6358 15.3983L12.5455 15.5632L14.2999 16.5236ZM13.8793 17.0403C14.0811 16.8806 14.2078 16.6918 14.2999 16.5236L12.5455 15.5632C12.5335 15.5851 12.5351 15.5791 12.5502 15.5596C12.5681 15.5365 12.5973 15.5044 12.6377 15.4724L13.8793 17.0403ZM13.5505 17.2376C13.6575 17.1899 13.7695 17.1273 13.8793 17.0403L12.6377 15.4724C12.6829 15.4366 12.7209 15.4178 12.7349 15.4115L13.5505 17.2376ZM12.2036 15.8912C12.1637 16.0323 12.1483 16.1649 12.1435 16.2843L14.1419 16.3649C14.1422 16.3584 14.1415 16.3878 14.1283 16.4345L12.2036 15.8912ZM12.515 15.3017C12.3913 15.4588 12.2722 15.6478 12.2036 15.8912L14.1283 16.4345C14.1172 16.4739 14.1023 16.5077 14.0888 16.532C14.0774 16.5527 14.0723 16.5569 14.086 16.5395L12.515 15.3017ZM12.6253 15.1618L12.515 15.3017L14.086 16.5395L14.1963 16.3995L12.6253 15.1618ZM13.1148 16.7523L13.2917 16.7735L13.5298 14.7878L13.3529 14.7666L13.1148 16.7523ZM12.4402 16.4708C12.6553 16.6427 12.8837 16.7246 13.1148 16.7523L13.3529 14.7666C13.3816 14.77 13.4434 14.7801 13.5187 14.8105C13.5958 14.8415 13.6531 14.88 13.6886 14.9083L12.4402 16.4708ZM12.137 16.1576C12.2151 16.2564 12.3145 16.3704 12.4402 16.4708L13.6886 14.9083C13.7126 14.9275 13.7256 14.9412 13.7269 14.9426C13.7277 14.9435 13.7264 14.9421 13.7227 14.9378C13.719 14.9335 13.7135 14.9268 13.706 14.9173L12.137 16.1576ZM13.0308 14.5212C12.9073 14.523 12.7958 14.5401 12.6962 14.5632L13.1468 16.5117C13.1378 16.5138 13.1057 16.5203 13.0595 16.521L13.0308 14.5212ZM13.6548 14.642C13.4771 14.5738 13.271 14.5178 13.0308 14.5212L13.0595 16.521C13.0154 16.5216 12.9771 16.5167 12.9494 16.5108C12.9255 16.5057 12.919 16.5019 12.9378 16.5091L13.6548 14.642ZM13.8284 14.7087L13.6548 14.642L12.9378 16.5091L13.1114 16.5758L13.8284 14.7087ZM12.4533 15.6765L12.4935 15.8581L14.4464 15.4264L14.4062 15.2448L12.4533 15.6765ZM12.4731 14.8989C12.3827 15.1889 12.4042 15.4543 12.4533 15.6765L14.4062 15.2448C14.404 15.2346 14.4108 15.2608 14.4109 15.3103C14.411 15.3664 14.4023 15.4304 14.3824 15.4944L12.4731 14.8989ZM12.6776 14.4848C12.6048 14.5919 12.526 14.7292 12.4731 14.8989L14.3824 15.4944C14.3583 15.5715 14.3284 15.6139 14.3318 15.6089L12.6776 14.4848ZM14.524 14.8896C14.4815 14.7534 14.4244 14.6379 14.3666 14.5397L12.6429 15.554C12.6444 15.5566 12.6289 15.5307 12.6148 15.4854L14.524 14.8896ZM14.5851 15.5629C14.6037 15.3563 14.5991 15.1304 14.524 14.8896L12.6148 15.4853C12.6025 15.4461 12.5969 15.4104 12.595 15.3847C12.5934 15.3629 12.5953 15.359 12.5931 15.3835L14.5851 15.5629ZM14.5684 15.7478L14.5851 15.5629L12.5931 15.3835L12.5765 15.5683L14.5684 15.7478ZM13.2632 14.6891L13.0997 14.7768L14.0452 16.5393L14.2087 16.4515L13.2632 14.6891ZM14.0206 14.4942C13.711 14.4833 13.4562 14.5856 13.2632 14.6891L14.2087 16.4515C14.2256 16.4425 14.2068 16.4545 14.1616 16.4678C14.1092 16.4831 14.0363 16.4959 13.9507 16.4929L14.0206 14.4942Z" fill="black" mask="url(#path-7-inside-1_15_90)"/>
</svg>
