<svg width="24" height="12" viewBox="0 0 24 12" fill="none" xmlns="http://www.w3.org/2000/svg">
<path fill-rule="evenodd" clip-rule="evenodd" d="M6.71811 5.17497C6.78402 4.28382 6.58771 3.80615 6.06088 3.08274C6.04106 3.05552 6.02077 3.02795 6 3C5.97739 3.02649 5.95529 3.05263 5.93368 3.07846C5.29507 3.84182 5.09361 4.32727 5.26657 5.17654C5.27424 5.21422 5.28266 5.25262 5.2918 5.2918C5.25398 5.27804 5.21687 5.26494 5.1804 5.25248C4.38695 4.98133 3.89732 5.01329 3.1013 5.25982C3.06808 5.27011 3.03433 5.28077 3 5.2918C3.02176 5.32049 3.04322 5.34862 3.06441 5.3762C3.77118 6.29618 4.16688 6.59852 4.73776 6.69217C4.77572 6.6984 4.81445 6.7037 4.8541 6.7082C4.82843 6.73906 4.8036 6.76951 4.77959 6.79961C4.2394 7.47678 4.11246 7.97744 4.14201 8.89665C4.1431 8.93052 4.1444 8.96496 4.1459 9C4.17949 8.98983 4.21242 8.97965 4.24472 8.96944C5.0854 8.70374 5.49674 8.41803 5.94094 7.68353C5.96055 7.6511 5.98023 7.6178 6 7.58359C6.01894 7.6183 6.0378 7.65207 6.0566 7.68494C6.50704 8.47238 6.9272 8.74158 7.75483 8.97293C7.78728 8.982 7.82037 8.99101 7.8541 9C7.85511 8.96518 7.85599 8.93092 7.85675 8.89719C7.87899 7.9065 7.78894 7.37383 7.22587 6.7886C7.2002 6.76193 7.17356 6.73514 7.1459 6.7082C7.18293 6.69725 7.21912 6.68619 7.25454 6.67498C7.96161 6.45117 8.36161 6.16534 8.94037 5.37419C8.96004 5.34732 8.97991 5.31986 9 5.2918C9.02176 5.32049 9.04322 5.34862 9.06441 5.3762C9.77118 6.29618 10.1669 6.59852 10.7378 6.69217C10.7757 6.6984 10.8145 6.7037 10.8541 6.7082C10.8284 6.73906 10.8036 6.76951 10.7796 6.79961C10.2394 7.47678 10.1125 7.97744 10.142 8.89665C10.1431 8.93052 10.1444 8.96496 10.1459 9C10.1795 8.98983 10.2124 8.97965 10.2447 8.96944C11.0854 8.70374 11.4967 8.41803 11.9409 7.68353C11.9605 7.6511 11.9802 7.6178 12 7.58359C12.0189 7.6183 12.0378 7.65207 12.0566 7.68494C12.507 8.47238 12.9272 8.74158 13.7548 8.97293C13.7873 8.982 13.8204 8.99101 13.8541 9C13.8551 8.96518 13.856 8.93092 13.8568 8.89719C13.879 7.9065 13.7889 7.37383 13.2259 6.7886C13.2002 6.76193 13.1736 6.73514 13.1459 6.7082C13.1829 6.69725 13.2191 6.68619 13.2545 6.67498C13.9616 6.45117 14.3616 6.16534 14.9404 5.37419C14.96 5.34732 14.9799 5.31986 15 5.2918C15.0218 5.32049 15.0432 5.34862 15.0644 5.3762C15.7712 6.29618 16.1669 6.59852 16.7378 6.69217C16.7757 6.6984 16.8145 6.7037 16.8541 6.7082C16.8284 6.73906 16.8036 6.76951 16.7796 6.79961C16.2394 7.47678 16.1125 7.97744 16.142 8.89665C16.1431 8.93052 16.1444 8.96496 16.1459 9C16.1795 8.98983 16.2124 8.97965 16.2447 8.96944C17.0854 8.70374 17.4967 8.41803 17.9409 7.68353C17.9605 7.6511 17.9802 7.6178 18 7.58359C18.0189 7.6183 18.0378 7.65207 18.0566 7.68494C18.507 8.47238 18.9272 8.74158 19.7548 8.97293C19.7873 8.982 19.8204 8.99101 19.8541 9C19.8551 8.96518 19.856 8.93092 19.8568 8.89719C19.879 7.9065 19.7889 7.37383 19.2259 6.7886C19.2002 6.76193 19.1736 6.73514 19.1459 6.7082C19.1829 6.69725 19.2191 6.68619 19.2545 6.67498C19.9616 6.45117 20.3616 6.16534 20.9404 5.37419C20.96 5.34732 20.9799 5.31986 21 5.2918C20.9688 5.27698 20.9381 5.26259 20.9079 5.24863C20.155 4.9012 19.6756 4.82517 18.8133 5.23982C18.7789 5.25636 18.7439 5.27368 18.7082 5.2918C18.712 5.25206 18.7153 5.21314 18.7181 5.17497C18.784 4.28382 18.5877 3.80615 18.0609 3.08274C18.0411 3.05552 18.0208 3.02795 18 3C17.9774 3.02649 17.9553 3.05263 17.9337 3.07846C17.2951 3.84182 17.0936 4.32727 17.2666 5.17654C17.2742 5.21422 17.2827 5.25262 17.2918 5.2918C17.254 5.27804 17.2169 5.26494 17.1804 5.25248C16.3869 4.98133 15.8973 5.01329 15.1013 5.25982C15.0681 5.27011 15.0343 5.28077 15 5.2918C14.9688 5.27698 14.9381 5.26259 14.9079 5.24863C14.155 4.9012 13.6756 4.82517 12.8133 5.23982C12.7789 5.25636 12.7439 5.27368 12.7082 5.2918C12.712 5.25206 12.7153 5.21314 12.7181 5.17497C12.784 4.28382 12.5877 3.80615 12.0609 3.08274C12.0411 3.05552 12.0208 3.02795 12 3C11.9774 3.02649 11.9553 3.05263 11.9337 3.07846C11.2951 3.84182 11.0936 4.32727 11.2666 5.17654C11.2742 5.21422 11.2827 5.25262 11.2918 5.2918C11.254 5.27804 11.2169 5.26494 11.1804 5.25248C10.387 4.98133 9.89732 5.01329 9.1013 5.25982C9.06808 5.27011 9.03433 5.28077 9 5.2918C8.96883 5.27698 8.93814 5.26259 8.9079 5.24863C8.15498 4.9012 7.67564 4.82517 6.81328 5.23982C6.77888 5.25636 6.74387 5.27368 6.70821 5.2918C6.71198 5.25206 6.71529 5.21314 6.71811 5.17497ZM8.84795 5.33113C8.48393 5.16436 8.19536 5.06823 7.89859 5.0584C7.57445 5.04766 7.22837 5.13971 6.7535 5.38095L6.59145 5.46328L6.60865 5.28233C6.6555 4.78976 6.62721 4.43232 6.51845 4.10226C6.41864 3.79934 6.24899 3.51291 5.99456 3.1616C5.68352 3.53549 5.48727 3.83343 5.38737 4.13678C5.28018 4.46223 5.2807 4.8043 5.38918 5.26906L5.43116 5.44889L5.25762 5.38577C4.81724 5.22561 4.48049 5.15742 4.14726 5.16195C3.84776 5.16602 3.5453 5.22886 3.16621 5.34449C3.52002 5.80269 3.78998 6.09639 4.04065 6.28606C4.30694 6.48755 4.55399 6.57349 4.86538 6.60884L5.04946 6.62974L4.93097 6.77216C4.62395 7.14118 4.44452 7.44522 4.34517 7.77852C4.25409 8.08411 4.22828 8.42096 4.24111 8.86565C4.64528 8.73626 4.93983 8.60353 5.18604 8.4189C5.45594 8.21651 5.67473 7.94646 5.91343 7.53354L6.00252 7.37943L6.08778 7.53569C6.32919 7.97811 6.55172 8.25658 6.8216 8.4555C7.06773 8.63691 7.35983 8.75712 7.75732 8.86974C7.76733 8.38323 7.74859 8.01901 7.66134 7.70633C7.56787 7.37138 7.39377 7.08918 7.07613 6.77984L6.95384 6.66075L7.11752 6.61231C7.51183 6.49563 7.80272 6.36966 8.07293 6.16689C8.3239 5.97856 8.56195 5.72028 8.84795 5.33113ZM14.8479 5.33113C14.4839 5.16436 14.1954 5.06823 13.8986 5.0584C13.5745 5.04766 13.2284 5.13971 12.7535 5.38095L12.5914 5.46328L12.6087 5.28233C12.6555 4.78976 12.6272 4.43232 12.5185 4.10226C12.4186 3.79934 12.249 3.51291 11.9946 3.1616C11.6835 3.53549 11.4873 3.83343 11.3874 4.13678C11.2802 4.46223 11.2807 4.8043 11.3892 5.26906L11.4312 5.44889L11.2576 5.38577C10.8172 5.22561 10.4805 5.15742 10.1473 5.16195C9.84776 5.16602 9.5453 5.22886 9.16621 5.34449C9.52002 5.80269 9.78998 6.09639 10.0406 6.28606C10.3069 6.48755 10.554 6.57349 10.8654 6.60884L11.0495 6.62974L10.931 6.77216C10.6239 7.14118 10.4445 7.44522 10.3452 7.77852C10.2541 8.08411 10.2283 8.42096 10.2411 8.86565C10.6453 8.73626 10.9398 8.60353 11.186 8.4189C11.4559 8.21651 11.6747 7.94646 11.9134 7.53354L12.0025 7.37943L12.0878 7.53569C12.3292 7.97811 12.5517 8.25658 12.8216 8.4555C13.0677 8.63691 13.3598 8.75712 13.7573 8.86974C13.7673 8.38323 13.7486 8.01901 13.6613 7.70633C13.5679 7.37138 13.3938 7.08918 13.0761 6.77984L12.9538 6.66075L13.1175 6.61231C13.5118 6.49563 13.8027 6.36966 14.0729 6.16689C14.3239 5.97856 14.562 5.72028 14.8479 5.33113ZM19.8986 5.0584C20.1954 5.06823 20.4839 5.16436 20.8479 5.33113C20.562 5.72028 20.3239 5.97856 20.0729 6.16689C19.8027 6.36966 19.5118 6.49563 19.1175 6.61231L18.9538 6.66075L19.0761 6.77984C19.3938 7.08918 19.5679 7.37138 19.6613 7.70633C19.7486 8.01901 19.7673 8.38323 19.7573 8.86974C19.3598 8.75712 19.0677 8.63691 18.8216 8.4555C18.5517 8.25658 18.3292 7.97811 18.0878 7.53569L18.0025 7.37943L17.9134 7.53354C17.6747 7.94646 17.4559 8.21651 17.186 8.4189C16.9398 8.60353 16.6453 8.73626 16.2411 8.86565C16.2283 8.42096 16.2541 8.08411 16.3452 7.77852C16.4445 7.44522 16.6239 7.14118 16.931 6.77216L17.0495 6.62974L16.8654 6.60884C16.554 6.57349 16.3069 6.48755 16.0406 6.28606C15.79 6.09639 15.52 5.80269 15.1662 5.34449C15.5453 5.22886 15.8478 5.16602 16.1473 5.16195C16.4805 5.15742 16.8172 5.22561 17.2576 5.38577L17.4312 5.44889L17.3892 5.26906C17.2807 4.8043 17.2802 4.46223 17.3874 4.13678C17.4873 3.83343 17.6835 3.53549 17.9946 3.1616C18.249 3.51291 18.4186 3.79934 18.5185 4.10226C18.6272 4.43232 18.6555 4.78976 18.6087 5.28233L18.5914 5.46328L18.7535 5.38095C19.2284 5.13971 19.5745 5.04766 19.8986 5.0584Z" fill="url(#paint0_linear_13_79)"/>
<defs>
<linearGradient id="paint0_linear_13_79" x1="12" y1="3" x2="12" y2="9" gradientUnits="userSpaceOnUse">
<stop stop-color="#283C86"/>
<stop offset="1" stop-color="#45A247"/>
</linearGradient>
</defs>
</svg>
